<svg id="svg" xmlns="http://www.w3.org/2000/svg" xmlns:xlink="http://www.w3.org/1999/xlink" width="400" height="209.58333333333334" viewBox="0, 0, 400,209.58333333333334"><g id="svgg"><path id="path0" d="M130.417 114.734 C 130.130 114.786,129.700 115.010,129.460 115.232 C 129.015 115.645,128.873 115.932,127.159 119.896 C 126.613 121.156,125.564 123.359,124.827 124.792 C 124.090 126.224,122.692 128.990,121.720 130.938 C 120.748 132.885,119.548 135.135,119.054 135.938 C 118.560 136.740,117.866 138.128,117.512 139.023 C 116.628 141.261,115.853 142.745,115.639 142.613 C 115.437 142.488,113.290 138.792,111.095 134.792 C 110.394 133.514,106.178 125.163,106.151 125.000 C 106.081 124.572,104.659 121.836,102.984 118.909 C 100.711 114.934,100.800 115.003,97.911 115.001 C 95.234 114.999,95.001 115.356,94.652 120.000 C 94.256 125.268,94.188 126.348,94.066 129.271 C 93.914 132.923,93.605 136.916,93.357 138.438 C 93.245 139.125,93.093 141.000,93.020 142.604 C 92.946 144.208,92.708 147.583,92.490 150.104 C 92.273 152.625,92.041 155.859,91.976 157.292 C 91.911 158.724,91.764 160.617,91.650 161.499 C 90.997 166.531,91.767 167.415,96.460 167.021 C 100.060 166.720,100.259 166.270,100.505 157.917 C 100.567 155.797,100.707 153.125,100.817 151.979 C 100.926 150.833,101.073 148.255,101.145 146.250 C 101.319 141.332,101.940 134.542,102.187 134.836 C 102.215 134.869,103.059 136.443,104.062 138.333 C 107.058 143.980,107.637 145.065,108.180 146.045 C 108.465 146.559,108.975 147.495,109.315 148.125 C 109.654 148.755,110.439 150.197,111.059 151.330 C 111.680 152.462,112.599 154.149,113.102 155.080 C 113.605 156.010,114.074 156.818,114.144 156.875 C 114.214 156.932,114.404 157.235,114.565 157.549 C 114.905 158.209,115.459 158.445,115.985 158.155 C 116.578 157.828,119.560 152.135,120.802 148.958 C 121.138 148.099,121.806 146.552,122.287 145.521 C 122.768 144.490,123.351 143.224,123.581 142.708 C 124.284 141.135,127.532 134.706,127.777 134.404 C 128.068 134.044,128.300 134.776,128.461 136.563 C 128.523 137.250,128.662 138.155,128.769 138.573 C 128.998 139.468,129.299 141.762,129.476 143.958 C 129.920 149.454,130.278 152.760,130.718 155.412 C 130.993 157.076,131.278 159.141,131.351 160.000 C 131.955 167.109,132.501 167.615,138.658 166.780 C 140.827 166.486,141.093 164.288,140.008 155.612 C 139.644 152.697,139.306 149.938,139.257 149.479 C 139.208 149.021,139.068 147.708,138.946 146.563 C 138.824 145.417,138.680 144.057,138.627 143.542 C 137.921 136.724,137.659 134.115,137.485 132.188 C 137.372 130.927,137.230 129.615,137.171 129.271 C 137.111 128.927,136.975 127.474,136.869 126.042 C 136.522 121.349,135.483 115.373,134.942 114.953 C 134.487 114.599,131.865 114.472,130.417 114.734 M214.896 114.816 C 205.457 115.547,199.753 123.801,201.957 133.537 C 203.203 139.039,206.701 141.338,218.333 144.303 C 220.339 144.813,222.448 145.445,223.022 145.706 C 228.739 148.306,226.729 156.435,219.981 158.009 C 214.268 159.342,209.324 156.239,208.052 150.521 C 207.553 148.282,207.484 148.250,203.459 148.405 C 199.348 148.564,199.262 148.611,199.466 150.625 C 200.063 156.519,201.836 160.083,205.392 162.541 C 211.419 166.708,216.147 167.788,221.563 166.235 C 222.823 165.873,224.148 165.550,224.508 165.516 C 227.525 165.234,233.139 159.720,234.261 155.938 C 235.391 152.125,235.461 150.105,234.588 146.503 C 233.912 143.716,231.421 140.607,228.599 139.029 C 227.283 138.292,221.990 136.467,221.146 136.457 C 220.456 136.450,213.627 134.028,212.298 133.320 C 208.410 131.248,207.763 129.128,210.010 125.833 C 212.057 122.832,214.003 122.179,218.391 123.018 C 221.691 123.650,223.371 125.003,225.045 128.377 C 226.020 130.341,226.115 130.378,229.935 130.251 C 233.436 130.135,233.642 130.000,233.494 127.928 C 233.311 125.374,231.291 121.585,228.581 118.712 C 226.191 116.178,220.012 114.419,214.896 114.816 M178.018 115.553 C 177.829 115.743,177.595 116.103,177.500 116.354 C 177.277 116.942,177.423 130.769,177.702 135.412 C 177.908 138.850,177.831 148.819,177.584 150.521 C 176.834 155.699,175.443 157.909,172.604 158.430 C 170.972 158.729,170.507 158.745,169.386 158.540 C 163.606 157.482,162.517 152.903,162.799 130.833 C 162.893 123.488,162.663 117.444,162.250 116.389 C 161.917 115.541,161.375 115.417,157.998 115.417 C 153.406 115.417,153.797 114.134,154.164 128.021 C 154.270 132.031,154.409 137.656,154.474 140.521 C 154.740 152.283,154.774 152.968,155.194 154.704 C 156.879 161.667,160.555 165.534,166.458 166.554 C 169.851 167.140,170.960 167.159,173.021 166.665 C 173.479 166.555,174.464 166.405,175.208 166.332 C 178.857 165.975,182.322 163.335,183.995 159.638 C 184.345 158.863,184.813 157.974,185.034 157.663 C 185.342 157.228,185.483 156.498,185.638 154.538 C 185.750 153.130,185.965 150.526,186.117 148.750 C 186.475 144.578,186.358 120.555,185.963 117.192 C 185.782 115.644,184.676 115.211,180.900 115.209 C 178.816 115.209,178.302 115.270,178.018 115.553 M250.527 115.531 C 250.088 115.682,249.673 115.897,249.604 116.008 C 249.426 116.297,249.523 150.840,249.726 159.133 C 249.928 167.391,249.676 166.749,252.813 166.985 C 257.578 167.342,258.182 167.025,258.470 164.022 C 258.699 161.629,258.539 147.071,258.231 142.292 C 258.176 141.432,258.090 135.311,258.041 128.688 C 257.941 115.211,258.015 115.836,256.452 115.415 C 255.330 115.113,251.527 115.188,250.527 115.531 M293.229 115.507 C 285.873 117.206,281.946 119.364,278.248 123.741 C 277.518 124.605,276.631 125.641,276.279 126.042 C 269.903 133.290,269.649 148.523,275.770 156.610 C 278.940 160.798,284.707 164.511,289.583 165.501 C 289.870 165.560,290.995 165.800,292.083 166.036 C 294.172 166.488,298.970 166.960,301.250 166.937 C 303.866 166.911,308.250 165.317,309.498 163.938 C 309.940 163.450,310.146 159.980,309.814 158.613 C 309.090 155.625,308.821 155.555,304.021 157.104 L 300.729 158.167 297.310 158.139 C 293.316 158.107,292.612 157.979,290.443 156.888 C 280.995 152.138,277.857 139.401,283.931 130.456 C 288.306 124.014,299.229 122.136,306.405 126.591 C 309.453 128.483,309.838 128.092,309.751 123.192 C 309.673 118.812,309.711 118.884,306.698 117.359 C 302.997 115.486,296.930 114.652,293.229 115.507 M221.505 118.658 C 223.733 119.235,225.404 120.259,226.924 121.979 C 227.429 122.551,229.167 126.004,229.163 126.427 C 229.149 127.974,228.094 127.416,227.392 125.490 C 224.604 117.846,211.094 116.810,207.217 123.942 C 205.531 127.044,205.624 132.248,207.402 134.325 C 207.996 135.019,210.330 136.667,210.720 136.667 C 210.795 136.667,211.296 136.868,211.834 137.113 C 213.013 137.651,215.368 138.487,216.061 138.613 C 218.238 139.009,222.069 140.114,223.750 140.832 C 224.495 141.150,225.526 141.583,226.042 141.795 C 227.745 142.495,230.478 145.450,230.931 147.083 C 233.460 156.194,225.491 164.751,215.833 163.296 C 210.750 162.531,209.142 161.784,206.854 159.125 C 204.384 156.256,202.718 151.293,204.554 152.276 C 204.803 152.409,205.085 152.880,205.220 153.389 C 205.882 155.887,208.545 160.000,209.500 160.000 C 209.660 160.000,209.792 160.089,209.792 160.199 C 209.792 161.123,217.697 162.376,220.529 161.901 C 225.747 161.024,230.164 155.569,230.203 149.955 C 230.208 149.227,230.083 148.842,229.168 146.771 C 227.858 143.807,223.808 141.609,216.875 140.101 C 214.398 139.562,213.462 139.208,209.665 137.371 C 206.345 135.765,204.831 133.524,204.632 129.921 C 204.145 121.108,211.643 116.103,221.505 118.658 M132.435 118.965 C 132.586 119.281,132.703 120.616,132.727 122.298 C 132.766 125.089,133.117 128.855,133.949 135.417 C 134.710 141.413,134.792 142.184,134.792 143.347 C 134.792 143.973,134.978 146.030,135.205 147.920 C 135.432 149.809,135.766 152.620,135.946 154.167 C 136.126 155.714,136.410 158.057,136.577 159.375 C 137.019 162.865,136.952 163.333,136.015 163.333 C 135.639 163.333,135.574 163.003,135.318 159.792 C 135.033 156.232,134.765 153.542,134.590 152.500 C 134.484 151.870,134.296 150.135,134.171 148.646 C 134.046 147.156,133.860 145.422,133.757 144.792 C 133.655 144.161,133.507 142.849,133.429 141.875 C 133.351 140.901,133.262 139.964,133.232 139.792 C 133.203 139.620,133.110 138.542,133.027 137.396 C 132.943 136.250,132.847 135.266,132.812 135.208 C 132.721 135.059,132.316 131.406,132.200 129.688 C 132.145 128.885,131.997 126.686,131.869 124.800 C 131.577 120.466,131.548 120.420,130.429 122.549 C 129.931 123.496,129.187 124.833,128.776 125.521 C 128.365 126.208,127.587 127.784,127.048 129.022 C 126.508 130.260,125.716 131.901,125.288 132.668 C 122.400 137.833,118.276 146.454,117.066 149.852 C 116.157 152.406,115.136 151.547,112.289 145.833 C 111.575 144.401,110.826 142.995,110.624 142.708 C 110.423 142.422,109.305 140.328,108.141 138.056 C 106.978 135.783,105.811 133.580,105.549 133.160 C 104.990 132.263,102.678 127.860,100.824 124.167 C 99.368 121.265,99.350 121.264,99.099 124.064 C 98.807 127.316,98.507 130.050,98.128 132.917 C 97.909 134.578,97.680 137.391,97.621 139.167 C 97.561 140.943,97.469 142.771,97.415 143.229 C 97.361 143.688,97.214 146.031,97.088 148.438 C 96.963 150.844,96.777 153.703,96.675 154.792 C 96.574 155.880,96.489 157.286,96.487 157.917 C 96.482 159.590,96.233 162.375,96.074 162.529 C 94.989 163.582,94.842 162.870,95.199 158.285 C 95.454 155.010,95.811 149.594,95.931 147.188 C 95.983 146.156,96.074 144.703,96.134 143.958 C 96.193 143.214,96.342 141.104,96.464 139.271 C 96.586 137.438,96.864 133.922,97.081 131.458 C 97.298 128.995,97.535 125.995,97.609 124.792 C 98.024 117.973,98.657 117.248,100.696 121.250 C 101.250 122.339,102.340 124.354,103.116 125.729 C 103.893 127.104,105.807 130.764,107.368 133.863 C 108.929 136.962,110.995 140.914,111.958 142.645 C 112.921 144.377,114.109 146.564,114.599 147.506 C 115.417 149.078,115.513 149.186,115.775 148.827 C 116.048 148.456,119.496 141.552,123.099 134.167 C 125.222 129.813,128.116 124.231,128.666 123.428 C 128.897 123.090,129.439 122.016,129.869 121.042 C 131.140 118.163,131.798 117.631,132.435 118.965 M182.777 131.520 C 182.984 150.821,182.557 154.990,179.976 158.854 C 178.020 161.782,174.512 163.307,170.313 163.053 C 159.696 162.413,157.685 157.225,157.863 130.938 C 157.900 125.438,157.928 120.539,157.924 120.052 C 157.917 119.255,157.967 119.167,158.415 119.167 C 159.141 119.167,159.203 119.663,159.163 125.100 C 159.028 143.557,159.261 148.621,160.501 154.145 C 161.886 160.318,166.423 162.721,174.479 161.550 C 177.791 161.068,180.139 157.439,181.279 151.042 C 181.557 149.485,181.702 135.016,181.490 130.037 C 181.287 125.266,181.488 119.197,181.856 118.970 C 182.626 118.495,182.638 118.667,182.777 131.520 M254.281 118.975 C 254.436 119.226,254.548 125.938,254.670 142.188 C 254.714 148.146,254.816 155.102,254.895 157.645 C 255.017 161.548,254.992 162.337,254.733 162.707 C 254.241 163.410,253.750 162.753,253.750 161.391 C 253.750 160.798,253.703 157.359,253.645 153.750 C 253.295 131.823,253.332 118.750,253.745 118.750 C 253.963 118.750,254.205 118.851,254.281 118.975 M301.354 119.500 C 303.937 120.216,306.750 121.622,306.837 122.240 C 306.951 123.043,306.352 122.894,302.751 121.224 C 299.372 119.658,295.251 119.709,289.792 121.384 C 284.337 123.057,279.331 128.424,277.066 135.027 C 276.493 136.697,276.355 143.778,276.863 145.417 C 277.022 145.932,277.186 146.533,277.226 146.751 C 278.299 152.596,284.268 158.674,290.744 160.515 C 291.424 160.708,292.279 160.957,292.645 161.067 C 295.560 161.949,304.627 161.498,305.708 160.417 C 306.040 160.085,306.401 160.174,306.517 160.618 C 306.836 161.839,304.349 162.611,298.875 162.991 C 294.302 163.309,288.323 161.525,284.063 158.572 C 279.751 155.582,277.012 151.745,276.124 147.450 C 275.952 146.618,275.665 145.375,275.487 144.688 C 273.583 137.370,277.786 127.353,284.792 122.515 C 289.331 119.379,296.326 118.106,301.354 119.500 " stroke="none" fill="#bcbcbc" fill-rule="evenodd"></path><path id="path1" d="M26.424 24.839 C 23.999 25.244,24.105 24.026,24.132 51.231 L 24.156 74.649 24.616 75.139 C 25.222 75.784,26.446 76.096,27.778 75.945 C 28.370 75.878,29.774 75.788,30.899 75.744 C 33.018 75.663,33.479 75.480,33.995 74.515 C 34.118 74.284,34.232 70.629,34.278 65.450 C 34.320 60.676,34.359 56.423,34.365 55.998 L 34.375 55.226 38.177 55.346 C 41.934 55.465,45.381 55.183,47.813 54.556 C 48.990 54.253,53.011 51.697,54.384 50.379 C 58.582 46.350,59.516 37.878,56.458 31.563 C 55.635 29.861,53.696 28.134,51.250 26.923 C 48.996 25.807,48.509 25.668,44.792 25.079 C 42.454 24.709,28.307 24.524,26.424 24.839 M94.845 24.776 C 93.062 24.892,92.873 24.948,92.304 25.524 L 91.688 26.146 91.579 42.188 C 91.336 78.042,91.319 75.008,91.771 75.339 C 92.516 75.883,93.626 76.014,97.165 75.976 L 100.684 75.938 101.121 75.352 C 101.553 74.774,101.559 74.604,101.623 60.977 C 101.659 53.393,101.716 47.094,101.750 46.979 C 101.784 46.865,102.192 47.521,102.656 48.438 C 103.121 49.354,103.746 50.461,104.044 50.898 C 104.343 51.334,104.787 52.084,105.032 52.564 C 105.277 53.045,105.687 53.719,105.945 54.063 C 106.202 54.406,106.864 55.531,107.416 56.563 C 107.968 57.594,108.845 59.107,109.366 59.926 C 111.268 62.916,111.992 64.077,112.604 65.120 C 116.670 72.051,118.827 75.446,119.331 75.705 C 120.001 76.051,126.707 76.146,127.319 75.819 C 127.988 75.461,128.068 74.219,128.110 63.542 C 128.133 57.755,128.191 51.427,128.239 49.479 C 128.421 42.020,128.349 26.252,128.131 25.844 C 127.280 24.255,119.505 24.275,118.465 25.868 C 118.158 26.339,117.983 34.374,117.929 50.501 L 117.917 54.022 116.818 52.271 C 116.213 51.309,115.263 49.677,114.707 48.646 C 114.150 47.615,113.153 46.021,112.490 45.104 C 111.827 44.188,110.936 42.734,110.510 41.875 C 110.084 41.016,109.186 39.366,108.514 38.210 C 107.842 37.053,107.292 36.031,107.292 35.938 C 107.292 35.845,107.075 35.478,106.809 35.124 C 106.544 34.769,105.966 33.870,105.524 33.125 C 105.083 32.380,104.074 30.801,103.282 29.616 C 102.491 28.430,101.675 27.071,101.469 26.595 C 100.962 25.419,100.480 25.041,99.176 24.793 C 98.018 24.574,97.955 24.574,94.845 24.776 M206.042 24.713 C 204.125 25.073,203.656 26.146,204.439 28.376 C 204.757 29.282,204.975 29.975,206.356 34.479 C 208.923 42.851,211.875 51.976,213.132 55.425 C 213.903 57.538,214.249 58.663,215.313 62.500 C 215.583 63.474,216.031 64.786,216.310 65.417 C 216.588 66.047,217.252 68.092,217.786 69.961 C 219.419 75.688,219.435 75.704,223.836 75.912 C 229.426 76.176,228.957 76.706,232.851 65.729 C 235.770 57.503,238.578 49.272,239.214 47.083 C 240.335 43.223,242.274 37.101,243.800 32.604 C 246.454 24.783,246.245 24.346,240.044 24.726 C 235.739 24.990,235.373 25.240,234.344 28.626 C 234.027 29.668,233.395 31.599,232.940 32.917 C 232.485 34.234,231.817 36.344,231.456 37.604 C 230.295 41.655,228.743 46.716,228.037 48.750 C 225.866 55.009,224.475 58.723,224.351 58.590 C 224.274 58.506,224.063 57.781,223.883 56.979 C 223.593 55.693,223.289 54.696,222.010 50.833 C 221.129 48.172,219.791 43.597,219.791 43.248 C 219.791 43.029,219.177 41.013,218.425 38.769 C 217.673 36.524,216.741 33.563,216.354 32.188 C 214.545 25.763,214.483 25.617,213.335 25.065 C 212.611 24.717,207.370 24.464,206.042 24.713 M318.824 24.792 C 316.479 24.982,316.140 26.030,317.305 29.479 C 317.653 30.510,318.080 31.964,318.253 32.708 C 318.426 33.453,318.838 35.000,319.169 36.146 C 319.500 37.292,320.060 39.542,320.414 41.146 C 320.768 42.750,321.299 44.859,321.595 45.833 C 321.891 46.807,322.531 49.151,323.018 51.042 C 323.505 52.932,324.606 57.104,325.464 60.313 C 326.323 63.521,327.085 66.427,327.157 66.771 C 327.229 67.115,327.747 68.881,328.309 70.696 C 329.787 75.476,330.214 75.830,334.493 75.832 C 339.181 75.835,340.198 74.966,341.227 70.082 C 341.620 68.220,342.042 66.571,343.834 59.896 C 344.142 58.750,344.726 56.742,345.132 55.434 C 345.538 54.125,346.141 51.791,346.472 50.247 C 347.316 46.319,347.163 46.236,348.522 51.358 C 349.100 53.533,349.902 56.531,350.305 58.021 C 350.708 59.510,351.374 62.042,351.785 63.646 C 354.824 75.494,355.048 75.830,359.910 75.832 C 364.584 75.835,365.654 74.940,366.636 70.208 C 367.312 66.954,368.830 61.244,370.623 55.208 C 371.287 52.974,371.990 50.359,372.185 49.397 C 372.380 48.435,372.679 47.263,372.849 46.793 C 373.019 46.322,373.612 44.156,374.166 41.979 C 376.033 34.641,376.630 32.406,377.379 29.950 C 378.850 25.130,378.694 24.921,373.570 24.831 C 368.349 24.739,368.306 24.776,366.484 30.938 C 364.917 36.234,363.091 43.277,362.683 45.598 C 362.575 46.213,362.169 47.713,361.781 48.931 C 361.393 50.149,360.867 52.083,360.613 53.229 C 359.971 56.119,359.897 56.170,359.497 53.996 C 359.116 51.924,357.804 46.706,355.959 39.923 C 355.308 37.532,354.637 34.907,354.469 34.090 C 352.675 25.409,352.183 24.792,347.066 24.792 L 343.909 24.792 343.119 25.582 C 342.554 26.147,342.230 26.727,341.985 27.613 C 341.797 28.296,341.286 30.073,340.851 31.563 C 339.605 35.821,338.804 38.857,338.212 41.563 C 337.912 42.938,337.593 44.203,337.505 44.375 C 337.417 44.547,337.278 45.156,337.196 45.729 C 337.114 46.302,336.731 47.755,336.345 48.958 C 335.959 50.161,335.449 52.036,335.210 53.125 C 334.472 56.495,334.523 56.479,333.964 53.524 C 333.564 51.409,332.356 46.639,330.619 40.313 C 330.146 38.594,329.437 35.781,329.043 34.063 C 326.894 24.695,326.328 24.181,318.824 24.792 M70.668 25.139 C 69.544 25.693,69.584 24.934,69.477 47.543 C 69.422 59.264,69.324 70.189,69.259 71.821 L 69.142 74.788 69.681 75.288 C 70.701 76.233,78.107 76.427,78.950 75.530 L 79.420 75.029 79.636 50.982 C 79.862 25.826,79.868 26.099,79.063 25.295 C 78.410 24.641,71.922 24.521,70.668 25.139 M141.562 25.069 C 140.300 25.643,140.317 25.544,140.294 32.166 C 140.283 35.501,140.209 46.499,140.131 56.606 L 139.988 74.982 140.558 75.356 C 141.093 75.706,142.030 75.729,155.382 75.729 L 169.635 75.729 170.020 75.239 C 170.601 74.501,170.729 73.544,170.729 69.930 L 170.729 66.630 170.122 66.108 C 169.560 65.625,169.375 65.590,167.622 65.631 C 166.581 65.656,162.237 65.664,157.969 65.650 L 150.208 65.625 150.208 60.033 L 150.208 54.442 155.365 54.305 C 158.201 54.229,162.414 54.167,164.728 54.167 C 170.279 54.167,169.873 54.513,170.175 49.522 C 170.530 43.653,171.525 44.167,159.797 44.166 L 150.521 44.166 150.521 39.564 L 150.521 34.962 160.074 35.026 C 169.315 35.087,169.638 35.076,169.922 34.686 C 170.817 33.463,170.939 26.201,170.079 25.393 L 169.565 24.910 155.876 24.847 C 144.655 24.796,142.075 24.836,141.562 25.069 M256.526 25.096 C 255.151 25.694,255.252 23.961,255.058 50.313 C 254.876 75.226,254.875 75.186,255.792 75.634 C 256.350 75.907,263.131 76.164,264.065 75.948 C 265.119 75.703,265.139 75.485,265.182 64.063 C 265.204 58.219,265.265 51.891,265.318 50.000 C 265.522 42.785,265.458 26.299,265.225 25.864 C 264.702 24.888,264.284 24.791,260.631 24.800 C 258.176 24.806,256.998 24.891,256.526 25.096 M278.609 25.084 C 277.225 25.711,277.327 23.903,277.164 50.650 L 277.017 74.947 277.615 75.338 C 278.412 75.860,306.282 75.963,306.919 75.447 C 307.619 74.880,307.801 73.768,307.788 70.122 L 307.775 66.598 307.187 66.092 C 306.647 65.628,306.443 65.590,304.705 65.631 C 303.664 65.656,299.320 65.664,295.052 65.650 L 287.292 65.625 287.292 60.033 L 287.292 54.442 292.448 54.305 C 295.284 54.229,299.490 54.167,301.795 54.167 C 307.343 54.167,306.971 54.448,307.214 50.057 C 307.472 45.397,307.458 45.226,306.791 44.652 L 306.227 44.167 296.915 44.166 L 287.604 44.166 287.604 39.563 L 287.604 34.961 296.979 35.003 C 302.135 35.026,306.469 35.035,306.609 35.023 C 307.334 34.959,307.576 33.725,307.640 29.773 L 307.702 25.900 307.173 25.403 L 306.644 24.906 292.957 24.845 C 281.412 24.794,279.167 24.832,278.609 25.084 M43.959 34.981 C 46.477 35.938,47.589 37.631,47.598 40.521 C 47.613 45.117,45.497 46.084,36.636 45.530 L 34.223 45.379 34.297 40.242 C 34.338 37.416,34.372 34.993,34.373 34.857 C 34.378 34.229,42.249 34.331,43.959 34.981 " stroke="none" fill="#4c0c0c" fill-rule="evenodd"></path><path id="path2" d="M159.021 122.708 C 159.021 123.339,159.060 123.596,159.108 123.281 C 159.155 122.966,159.155 122.451,159.108 122.135 C 159.060 121.820,159.021 122.078,159.021 122.708 " stroke="none" fill="#c4c4c4" fill-rule="evenodd"></path><path id="path3" d="M140.067 70.000 C 140.067 70.745,140.104 71.049,140.151 70.677 C 140.197 70.305,140.197 69.695,140.151 69.323 C 140.104 68.951,140.067 69.255,140.067 70.000 " stroke="none" fill="#88386c" fill-rule="evenodd"></path><path id="path4" d="" stroke="none" fill="#8c380c" fill-rule="evenodd"></path></g></svg>