<svg id="svg" xmlns="http://www.w3.org/2000/svg" xmlns:xlink="http://www.w3.org/1999/xlink" width="400" height="209.58333333333334" viewBox="0, 0, 400,209.58333333333334"><g id="svgg"><path id="path0" d="M245.208 76.880 C 241.573 77.106,241.397 77.486,241.558 84.767 C 241.775 94.640,241.872 97.810,241.970 98.301 C 242.422 100.570,242.149 113.670,241.585 116.711 C 240.730 121.326,238.547 123.212,233.739 123.491 C 228.969 123.768,226.784 121.533,226.046 115.625 C 225.636 112.346,225.607 111.189,225.524 95.417 C 225.438 79.164,225.408 78.358,224.861 77.522 L 224.535 77.024 220.028 77.166 C 214.275 77.349,213.885 77.575,213.882 80.729 C 213.874 91.154,214.171 107.260,214.467 112.396 C 215.401 128.591,220.150 134.158,233.341 134.520 C 245.185 134.844,251.962 129.251,253.206 118.125 C 253.726 113.475,253.775 112.165,253.649 106.250 C 253.529 100.588,253.475 82.757,253.573 81.146 C 253.662 79.674,253.304 78.078,252.774 77.587 C 252.026 76.894,249.223 76.632,245.208 76.880 M279.654 76.880 C 273.455 77.533,269.069 81.317,266.733 88.027 L 265.938 90.313 265.947 93.854 C 265.954 96.223,266.049 97.672,266.235 98.229 C 268.066 103.728,272.877 107.191,283.744 110.833 C 291.013 113.270,293.077 115.850,291.160 120.104 C 289.830 123.057,286.785 124.156,282.470 123.241 C 279.191 122.546,277.742 120.870,276.996 116.908 C 276.410 113.801,275.758 113.462,270.462 113.505 C 265.604 113.544,264.868 114.007,265.101 116.875 C 266.027 128.242,272.637 134.597,283.512 134.578 C 293.461 134.560,298.203 132.239,301.250 125.895 C 304.944 118.202,303.839 110.748,298.234 105.563 C 297.103 104.517,293.981 103.082,289.271 101.442 C 280.751 98.475,278.438 97.233,277.472 95.106 C 276.150 92.196,278.839 88.221,282.444 87.757 C 287.584 87.097,291.022 89.118,291.897 93.314 C 292.548 96.438,292.950 96.638,298.660 96.678 C 303.476 96.712,304.236 96.082,303.785 92.433 C 303.347 88.886,302.483 86.540,300.508 83.537 C 298.557 80.570,295.205 78.244,291.667 77.402 C 290.807 77.198,289.832 76.949,289.500 76.849 C 288.784 76.633,281.789 76.656,279.654 76.880 M354.456 76.876 C 346.411 77.988,341.755 83.593,340.528 93.646 C 340.360 95.021,340.171 96.568,340.108 97.083 C 339.609 101.142,339.862 113.504,340.535 117.917 C 342.334 129.724,347.268 134.195,358.854 134.515 C 368.379 134.778,373.214 132.179,376.941 124.792 C 378.765 121.174,379.600 115.561,378.504 114.286 L 377.993 113.692 374.048 113.610 C 367.990 113.484,367.520 113.704,366.988 116.920 C 366.221 121.560,363.765 123.542,358.780 123.542 C 352.670 123.542,351.191 119.974,351.242 105.366 C 351.294 90.509,352.713 87.467,359.453 87.758 C 363.611 87.937,366.183 89.753,366.758 92.917 C 367.409 96.492,367.207 96.363,372.396 96.530 C 378.396 96.724,378.860 96.477,378.801 93.125 C 378.700 87.429,374.600 80.967,369.428 78.356 C 366.665 76.961,359.188 76.222,354.456 76.876 M24.270 77.385 C 22.033 77.973,22.015 78.057,21.946 88.854 C 21.914 93.781,21.899 98.375,21.912 99.063 C 21.925 99.750,21.946 107.592,21.959 116.490 C 21.985 134.604,21.865 133.231,23.473 133.762 C 24.364 134.056,31.107 133.820,31.875 133.468 C 33.104 132.904,33.383 128.857,33.156 114.942 L 33.092 111.030 37.327 111.168 C 40.039 111.256,42.087 111.224,43.021 111.079 C 43.823 110.954,44.948 110.794,45.521 110.723 C 50.515 110.101,56.110 106.229,58.101 102.018 C 58.661 100.832,58.931 99.947,59.561 97.237 C 60.512 93.146,59.018 85.952,56.618 83.056 C 54.661 80.696,50.486 78.378,47.526 78.010 C 46.996 77.944,45.719 77.743,44.688 77.563 C 42.392 77.164,25.671 77.018,24.270 77.385 M70.938 77.174 C 70.823 77.219,70.469 77.313,70.151 77.383 C 68.742 77.694,68.321 79.346,69.171 81.221 C 69.398 81.720,69.583 82.298,69.583 82.504 C 69.583 82.711,69.765 83.380,69.988 83.992 C 70.397 85.117,70.956 86.895,71.975 90.313 C 72.282 91.344,72.720 92.750,72.947 93.438 C 73.174 94.125,73.769 96.000,74.268 97.604 C 74.768 99.208,75.503 101.458,75.902 102.604 C 76.301 103.750,76.931 105.672,77.302 106.875 C 77.673 108.078,78.285 109.859,78.662 110.833 C 79.335 112.574,80.511 116.381,81.273 119.290 C 81.485 120.103,81.890 121.275,82.172 121.894 C 82.454 122.514,83.213 124.846,83.861 127.076 C 85.872 134.009,85.687 133.858,92.261 133.940 C 97.045 134.000,96.527 134.944,104.373 111.875 C 105.600 108.266,106.764 104.938,106.959 104.481 C 107.153 104.023,107.680 102.269,108.130 100.582 C 108.579 98.896,109.286 96.551,109.700 95.373 C 110.115 94.194,110.724 92.245,111.054 91.042 C 111.384 89.839,112.321 86.932,113.135 84.583 C 114.830 79.697,114.974 78.627,114.058 77.716 L 113.527 77.188 109.578 77.236 C 105.160 77.290,104.578 77.423,103.642 78.596 C 102.951 79.463,100.913 85.328,98.957 92.083 C 97.246 97.990,95.244 104.249,93.959 107.708 C 93.597 108.682,92.848 110.792,92.295 112.396 C 91.741 114.000,91.241 115.172,91.182 115.000 C 91.124 114.828,90.916 113.984,90.721 113.125 C 90.305 111.296,88.989 107.076,88.737 106.762 C 88.641 106.643,88.461 106.081,88.336 105.512 C 88.211 104.944,87.700 103.167,87.200 101.563 C 86.700 99.958,86.228 98.271,86.152 97.813 C 86.013 96.977,85.198 94.380,83.732 90.104 C 83.300 88.844,82.705 86.875,82.409 85.729 C 82.114 84.583,81.688 83.083,81.462 82.396 C 81.237 81.708,80.903 80.641,80.721 80.025 C 79.955 77.428,79.534 77.224,74.792 77.150 C 72.786 77.119,71.052 77.129,70.938 77.174 M155.538 77.290 C 154.022 77.442,152.916 78.213,152.917 79.118 C 152.917 79.317,152.856 84.870,152.782 91.458 C 152.707 98.047,152.636 110.076,152.625 118.189 L 152.604 132.941 153.077 133.386 C 153.629 133.905,161.696 134.389,162.512 133.952 C 163.681 133.326,163.854 130.720,163.854 113.726 L 163.854 101.306 164.924 103.350 C 165.513 104.474,166.416 106.032,166.931 106.812 C 167.446 107.591,168.172 108.839,168.543 109.583 C 168.914 110.328,169.720 111.695,170.334 112.622 C 170.948 113.548,171.602 114.673,171.787 115.122 C 171.973 115.570,172.334 116.219,172.590 116.563 C 172.846 116.906,173.399 117.806,173.819 118.561 C 174.920 120.542,175.183 120.729,176.865 120.729 C 178.402 120.729,180.208 119.958,180.208 119.302 C 180.208 119.262,180.767 118.263,181.449 117.082 C 182.132 115.900,182.847 114.497,183.039 113.964 C 183.231 113.430,183.795 112.437,184.293 111.757 C 184.791 111.077,185.560 109.767,186.003 108.846 C 186.445 107.925,187.133 106.698,187.532 106.118 C 187.930 105.539,188.669 104.244,189.173 103.240 C 189.677 102.237,190.111 101.495,190.138 101.593 C 190.164 101.691,190.218 108.755,190.258 117.292 C 190.337 134.006,190.299 133.478,191.466 133.961 C 192.773 134.503,200.130 134.021,201.041 133.334 L 201.548 132.951 201.500 124.653 C 201.247 81.263,201.218 78.855,200.937 78.417 C 199.992 76.944,192.382 76.551,191.152 77.910 C 190.792 78.308,189.748 80.071,187.878 83.438 C 187.306 84.469,186.187 86.278,185.393 87.457 C 184.599 88.637,183.546 90.418,183.053 91.416 C 182.560 92.413,181.591 94.214,180.901 95.417 C 180.210 96.620,179.010 98.845,178.235 100.362 C 177.028 102.724,176.458 103.476,176.458 102.706 C 176.458 102.604,176.169 102.092,175.815 101.568 C 175.462 101.044,174.845 99.859,174.444 98.935 C 174.043 98.010,173.442 96.817,173.107 96.283 C 172.488 95.295,171.809 93.923,170.463 90.938 C 170.050 90.021,169.519 88.927,169.283 88.507 C 167.850 85.954,167.063 84.614,165.630 82.292 C 164.747 80.859,163.777 79.252,163.474 78.720 C 162.645 77.260,160.208 76.821,155.538 77.290 M319.271 77.284 C 317.914 77.440,317.383 77.657,316.815 78.285 C 316.109 79.064,315.846 132.462,316.544 133.278 C 317.045 133.865,317.375 133.911,322.149 134.054 L 326.068 134.172 326.652 133.589 L 327.235 133.005 327.366 126.450 C 327.730 108.260,327.771 79.058,327.433 78.405 C 326.887 77.349,323.157 76.837,319.271 77.284 M44.063 88.536 C 48.819 90.368,49.659 98.326,45.260 99.878 C 44.012 100.318,40.574 100.493,36.607 100.318 L 33.201 100.167 33.237 94.229 C 33.266 89.413,33.328 88.254,33.564 88.094 C 34.216 87.653,42.696 88.010,44.063 88.536 " stroke="none" fill="#4c0c0c" fill-rule="evenodd"></path><path id="path1" d="" stroke="none" fill="#500c0c" fill-rule="evenodd"></path><path id="path2" d="" stroke="none" fill="#500c0c" fill-rule="evenodd"></path><path id="path3" d="" stroke="none" fill="#500c0c" fill-rule="evenodd"></path><path id="path4" d="" stroke="none" fill="#500c0c" fill-rule="evenodd"></path></g></svg>