<svg id="svg" xmlns="http://www.w3.org/2000/svg" xmlns:xlink="http://www.w3.org/1999/xlink" width="400" height="90.15063731170336" viewBox="0, 0, 400,90.15063731170336"><g id="svgg"><path id="path0" d="M252.978 13.411 C 252.927 13.462,252.124 13.509,251.195 13.514 C 250.265 13.520,249.462 13.594,249.409 13.679 C 249.357 13.764,249.192 13.833,249.043 13.833 C 248.550 13.833,247.309 14.529,247.396 14.756 C 247.442 14.875,247.371 15.014,247.239 15.064 C 247.104 15.116,247.000 15.376,247.000 15.661 C 247.000 15.939,246.922 16.167,246.826 16.167 C 246.712 16.167,246.663 17.023,246.683 18.667 C 246.700 20.042,246.779 21.167,246.857 21.167 C 246.936 21.167,247.007 23.998,247.014 27.458 C 247.022 30.919,247.097 34.725,247.180 35.917 C 247.263 37.108,247.347 38.472,247.366 38.948 C 247.385 39.423,247.460 39.775,247.533 39.729 C 247.607 39.684,247.667 41.076,247.667 42.823 C 247.667 44.571,247.608 46.000,247.536 46.000 C 247.464 46.000,247.390 47.594,247.371 49.542 C 247.333 53.498,247.030 58.000,246.801 58.000 C 246.719 58.000,246.668 58.094,246.688 58.208 C 246.768 58.677,246.455 59.992,246.288 59.889 C 246.178 59.821,246.149 59.914,246.208 60.141 C 246.260 60.338,246.240 60.500,246.164 60.500 C 246.089 60.500,245.977 60.725,245.917 61.000 C 245.856 61.275,245.730 61.500,245.636 61.500 C 245.541 61.500,245.514 61.629,245.574 61.787 C 245.635 61.944,245.634 62.023,245.572 61.961 C 245.427 61.815,245.108 62.140,244.786 62.764 C 244.644 63.038,244.337 63.364,244.103 63.489 C 243.869 63.615,243.717 63.781,243.766 63.858 C 243.814 63.936,243.699 64.000,243.510 64.000 C 243.321 64.000,243.167 64.079,243.167 64.177 C 243.167 64.274,243.092 64.307,243.000 64.250 C 242.908 64.193,242.833 64.220,242.833 64.310 C 242.833 64.400,242.590 64.526,242.292 64.589 C 241.994 64.653,241.657 64.780,241.544 64.871 C 241.430 64.963,241.231 64.997,241.102 64.947 C 240.972 64.897,240.815 64.907,240.753 64.970 C 240.336 65.390,235.138 65.463,234.855 65.053 C 234.797 64.969,234.431 64.807,234.042 64.694 C 233.652 64.580,233.333 64.420,233.333 64.338 C 233.333 64.256,233.182 64.141,232.998 64.083 C 232.813 64.024,232.705 63.906,232.757 63.821 C 232.810 63.736,232.729 63.667,232.578 63.667 C 232.426 63.667,232.263 63.517,232.215 63.333 C 232.167 63.150,232.068 63.000,231.994 63.000 C 231.921 63.000,231.689 62.719,231.479 62.375 C 231.269 62.031,231.042 61.726,230.975 61.698 C 230.907 61.669,230.893 61.537,230.944 61.406 C 230.994 61.274,230.953 61.167,230.851 61.167 C 230.750 61.167,230.666 61.073,230.666 60.958 C 230.665 60.844,230.545 60.525,230.399 60.250 C 230.243 59.955,230.066 58.965,229.969 57.834 C 229.878 56.780,229.746 55.880,229.676 55.834 C 229.606 55.788,229.496 54.325,229.432 52.583 C 229.367 50.842,229.235 48.854,229.138 48.167 C 229.027 47.381,229.007 45.927,229.085 44.250 C 229.153 42.783,229.181 40.571,229.146 39.333 C 229.112 38.096,229.117 36.183,229.159 35.083 C 229.402 28.654,229.063 15.103,228.645 14.568 C 228.567 14.468,228.552 14.337,228.613 14.276 C 228.673 14.216,228.597 14.167,228.444 14.167 C 228.292 14.167,228.167 14.080,228.167 13.975 C 228.167 13.721,218.026 13.938,217.712 14.198 C 217.595 14.295,217.500 14.324,217.500 14.262 C 217.500 14.200,217.313 14.352,217.083 14.599 C 216.854 14.846,216.667 15.117,216.667 15.201 C 216.667 15.285,216.600 15.312,216.518 15.261 C 216.197 15.063,215.669 19.124,215.989 19.330 C 216.062 19.378,216.167 25.417,216.222 32.750 C 216.277 40.083,216.366 46.683,216.420 47.417 C 216.474 48.150,216.536 49.837,216.559 51.167 C 216.581 52.496,216.649 53.696,216.709 53.833 C 216.770 53.971,216.852 54.683,216.891 55.417 C 216.981 57.095,217.100 58.268,217.330 59.750 C 217.429 60.392,217.520 61.126,217.531 61.381 C 217.542 61.636,217.605 61.878,217.670 61.919 C 217.735 61.959,217.752 62.181,217.708 62.413 C 217.664 62.644,217.702 62.833,217.793 62.833 C 217.954 62.833,218.246 64.047,218.184 64.458 C 218.166 64.573,218.224 64.667,218.313 64.667 C 218.451 64.667,218.812 65.829,218.870 66.458 C 218.880 66.573,218.951 66.667,219.028 66.667 C 219.104 66.667,219.169 66.760,219.172 66.875 C 219.180 67.216,219.942 68.670,220.053 68.558 C 220.110 68.501,220.126 68.610,220.090 68.800 C 220.053 68.990,220.131 69.234,220.262 69.343 C 220.393 69.452,220.500 69.640,220.500 69.762 C 220.500 69.883,220.686 70.184,220.914 70.429 C 221.141 70.674,221.279 70.952,221.221 71.047 C 221.163 71.141,221.193 71.170,221.288 71.111 C 221.383 71.052,221.554 71.227,221.667 71.500 C 221.780 71.773,221.938 71.955,222.019 71.905 C 222.100 71.855,222.167 71.890,222.167 71.983 C 222.167 72.231,223.842 73.878,224.375 74.153 C 224.627 74.283,224.797 74.426,224.752 74.470 C 224.708 74.514,225.140 74.779,225.711 75.059 C 226.282 75.338,226.843 75.658,226.957 75.770 C 227.070 75.881,227.389 76.022,227.665 76.083 C 227.941 76.144,228.167 76.267,228.167 76.356 C 228.167 76.446,228.238 76.476,228.325 76.422 C 228.412 76.368,228.806 76.473,229.200 76.656 C 230.033 77.042,231.186 77.323,231.958 77.329 C 232.256 77.331,232.500 77.393,232.500 77.465 C 232.500 77.670,234.525 77.751,239.292 77.736 C 243.940 77.722,244.500 77.697,244.500 77.501 C 244.500 77.433,244.819 77.328,245.208 77.267 C 245.598 77.207,246.104 77.120,246.333 77.074 C 246.563 77.028,246.844 76.980,246.958 76.967 C 247.073 76.955,247.167 76.882,247.167 76.806 C 247.167 76.729,247.298 76.664,247.458 76.661 C 247.619 76.658,248.050 76.510,248.417 76.333 C 248.783 76.156,249.177 76.009,249.292 76.006 C 249.406 76.003,249.500 75.921,249.500 75.823 C 249.500 75.726,249.576 75.694,249.668 75.751 C 249.760 75.808,249.953 75.737,250.097 75.594 C 250.240 75.451,250.464 75.333,250.595 75.333 C 250.726 75.333,250.833 75.258,250.833 75.167 C 250.833 75.075,250.948 75.000,251.089 75.000 C 251.229 75.000,251.387 74.888,251.439 74.751 C 251.492 74.614,251.601 74.543,251.683 74.593 C 251.764 74.644,252.022 74.493,252.256 74.259 C 252.490 74.025,252.736 73.833,252.801 73.833 C 252.913 73.833,253.287 73.472,254.968 71.744 C 255.327 71.373,255.676 70.899,255.743 70.689 C 255.809 70.480,255.905 70.349,255.955 70.400 C 256.045 70.490,256.548 69.696,256.763 69.125 C 256.823 68.965,256.940 68.833,257.024 68.833 C 257.149 68.833,257.299 68.567,257.588 67.833 C 257.888 67.074,258.093 66.667,258.177 66.667 C 258.233 66.667,258.379 66.367,258.500 66.000 C 258.621 65.633,258.783 65.333,258.860 65.333 C 258.937 65.333,258.987 65.277,258.971 65.208 C 258.955 65.140,259.074 64.648,259.235 64.116 C 259.397 63.584,259.488 63.043,259.438 62.913 C 259.389 62.783,259.413 62.637,259.492 62.588 C 259.572 62.539,259.690 61.843,259.755 61.041 C 259.820 60.239,259.935 59.505,260.012 59.409 C 260.088 59.313,260.202 58.226,260.264 56.992 C 260.327 55.759,260.432 54.675,260.497 54.583 C 260.563 54.492,260.584 52.617,260.545 50.417 C 260.196 30.715,260.173 19.260,260.484 18.950 C 260.712 18.721,260.724 17.888,260.500 17.750 C 260.408 17.693,260.333 17.220,260.332 16.698 C 260.330 15.741,259.735 14.154,259.444 14.333 C 259.370 14.379,259.236 14.285,259.147 14.125 C 259.050 13.953,258.787 13.833,258.506 13.833 C 258.243 13.833,258.003 13.769,257.972 13.690 C 257.910 13.531,253.126 13.263,252.978 13.411 M290.299 13.423 C 290.242 13.480,289.739 13.525,289.181 13.522 C 288.623 13.520,288.167 13.578,288.167 13.652 C 288.167 13.726,287.784 13.832,287.316 13.888 C 286.848 13.943,286.349 14.085,286.207 14.203 C 286.065 14.320,285.904 14.407,285.849 14.396 C 285.670 14.359,285.269 14.523,283.917 15.184 C 283.183 15.543,282.490 15.835,282.375 15.835 C 282.260 15.834,282.167 15.894,282.167 15.969 C 282.167 16.044,281.923 16.231,281.625 16.385 C 281.327 16.539,280.942 16.759,280.769 16.874 C 280.264 17.209,278.055 19.449,277.945 19.737 C 277.889 19.882,277.762 20.000,277.662 20.000 C 277.562 20.000,277.524 20.070,277.576 20.155 C 277.629 20.241,277.540 20.409,277.378 20.530 C 277.216 20.651,276.981 20.975,276.856 21.250 C 276.730 21.525,276.565 21.863,276.487 22.000 C 276.317 22.302,275.715 23.559,275.410 24.250 C 275.289 24.525,275.141 24.938,275.082 25.167 C 275.022 25.396,274.870 25.813,274.744 26.094 C 274.617 26.375,274.462 26.937,274.398 27.344 C 274.335 27.751,274.200 28.137,274.100 28.202 C 273.700 28.462,273.880 36.324,274.310 37.386 C 274.415 37.644,274.500 37.996,274.500 38.168 C 274.500 38.340,274.565 38.520,274.644 38.569 C 274.723 38.618,274.883 38.998,274.999 39.412 C 275.115 39.827,275.279 40.167,275.364 40.167 C 275.448 40.167,275.596 40.392,275.692 40.667 C 275.788 40.942,275.929 41.167,276.005 41.167 C 276.082 41.167,276.194 41.322,276.254 41.513 C 276.314 41.703,276.396 41.826,276.436 41.786 C 276.539 41.684,279.333 44.511,279.333 44.717 C 279.333 44.812,279.379 44.843,279.434 44.788 C 279.539 44.683,279.598 44.723,280.384 45.419 C 280.640 45.647,280.959 45.833,281.092 45.833 C 281.225 45.833,281.333 45.903,281.333 45.987 C 281.333 46.072,281.765 46.353,282.292 46.612 C 282.819 46.871,283.275 47.140,283.306 47.208 C 283.336 47.277,283.470 47.333,283.602 47.333 C 283.735 47.333,283.885 47.441,283.936 47.573 C 283.986 47.705,284.134 47.771,284.264 47.722 C 284.394 47.672,284.500 47.708,284.500 47.802 C 284.500 47.896,284.726 48.023,285.001 48.084 C 285.277 48.144,285.465 48.254,285.420 48.329 C 285.374 48.403,285.598 48.513,285.918 48.573 C 286.238 48.633,286.500 48.746,286.500 48.824 C 286.500 48.903,286.875 49.057,287.334 49.167 C 287.792 49.277,288.209 49.434,288.260 49.517 C 288.311 49.599,288.465 49.667,288.601 49.667 C 288.738 49.667,289.160 49.817,289.539 50.000 C 289.919 50.183,290.309 50.334,290.406 50.334 C 290.504 50.335,290.779 50.437,291.018 50.562 C 291.256 50.687,291.856 50.880,292.351 50.992 C 292.845 51.104,293.486 51.302,293.775 51.431 C 294.064 51.561,294.420 51.667,294.567 51.667 C 294.713 51.667,294.833 51.733,294.833 51.815 C 294.833 51.896,295.094 52.012,295.412 52.071 C 296.033 52.188,299.713 53.969,299.806 54.198 C 299.837 54.274,299.922 54.298,299.995 54.253 C 300.069 54.207,300.222 54.282,300.335 54.419 C 300.448 54.555,300.603 54.667,300.679 54.667 C 301.138 54.667,302.522 56.634,302.575 57.361 C 302.580 57.422,302.640 57.528,302.708 57.597 C 302.882 57.771,302.866 59.167,302.690 59.167 C 302.610 59.167,302.551 59.335,302.557 59.542 C 302.572 60.089,302.157 61.667,301.997 61.667 C 301.921 61.667,301.812 61.885,301.753 62.153 C 301.694 62.420,301.537 62.681,301.404 62.732 C 301.271 62.783,301.088 63.019,300.998 63.256 C 300.908 63.493,300.765 63.644,300.680 63.591 C 300.595 63.539,300.369 63.716,300.177 63.985 C 299.985 64.255,299.606 64.523,299.331 64.584 C 299.057 64.644,298.833 64.756,298.833 64.832 C 298.833 64.908,298.702 64.950,298.542 64.926 C 298.381 64.901,298.212 64.927,298.167 64.984 C 297.794 65.447,292.609 65.446,292.323 64.983 C 292.256 64.874,292.043 64.827,291.850 64.877 C 291.658 64.928,291.500 64.910,291.500 64.839 C 291.500 64.768,291.196 64.661,290.825 64.601 C 290.377 64.530,290.191 64.429,290.269 64.302 C 290.348 64.174,290.295 64.146,290.111 64.216 C 289.958 64.275,289.833 64.250,289.833 64.161 C 289.833 64.073,289.752 64.000,289.652 64.000 C 289.350 64.000,288.498 63.124,288.152 62.458 C 287.973 62.115,287.753 61.833,287.663 61.833 C 287.573 61.833,287.500 61.679,287.500 61.490 C 287.500 61.271,287.430 61.190,287.305 61.268 C 287.175 61.348,287.145 61.298,287.214 61.116 C 287.272 60.966,287.256 60.805,287.178 60.757 C 287.101 60.709,286.987 60.398,286.924 60.065 C 286.862 59.732,286.748 59.337,286.672 59.188 C 286.596 59.039,286.454 58.299,286.357 57.543 C 286.029 55.004,285.088 54.333,281.853 54.333 C 281.303 54.333,280.807 54.258,280.750 54.167 C 280.693 54.075,280.351 54.000,279.990 54.000 C 279.629 54.000,279.333 54.075,279.333 54.167 C 279.333 54.268,278.580 54.333,277.407 54.333 C 274.551 54.333,273.501 54.689,273.236 55.746 C 273.178 55.977,273.076 56.167,273.010 56.167 C 272.852 56.167,272.842 58.225,273.000 58.333 C 273.067 58.379,273.173 59.089,273.237 59.911 C 273.300 60.733,273.430 61.499,273.524 61.612 C 273.618 61.726,273.647 61.897,273.587 61.994 C 273.494 62.145,273.582 62.533,273.965 63.667 C 274.012 63.804,274.033 64.085,274.013 64.292 C 273.993 64.498,274.048 64.667,274.136 64.667 C 274.224 64.667,274.345 64.929,274.406 65.250 C 274.466 65.571,274.591 65.833,274.684 65.833 C 274.777 65.833,274.807 65.908,274.750 66.000 C 274.694 66.091,274.764 66.333,274.907 66.537 C 275.050 66.741,275.167 67.091,275.167 67.315 C 275.167 67.539,275.216 67.672,275.277 67.612 C 275.427 67.462,276.032 68.479,275.910 68.677 C 275.857 68.763,275.893 68.833,275.990 68.833 C 276.087 68.833,276.167 68.948,276.167 69.089 C 276.167 69.229,276.279 69.387,276.417 69.440 C 276.554 69.492,276.667 69.642,276.667 69.773 C 276.667 69.904,276.779 70.053,276.916 70.106 C 277.053 70.159,277.123 70.269,277.073 70.351 C 277.022 70.433,277.055 70.500,277.146 70.500 C 277.236 70.500,277.364 70.669,277.429 70.875 C 277.545 71.241,279.833 73.651,279.833 73.406 C 279.833 73.338,279.965 73.426,280.125 73.601 C 280.285 73.776,280.623 74.025,280.875 74.154 C 281.127 74.284,281.292 74.430,281.243 74.479 C 281.155 74.567,281.793 74.953,282.708 75.366 C 282.960 75.480,283.167 75.636,283.167 75.713 C 283.167 75.790,283.242 75.807,283.333 75.750 C 283.425 75.693,283.500 75.720,283.500 75.810 C 283.500 75.900,283.725 76.023,284.000 76.083 C 284.275 76.144,284.500 76.265,284.500 76.354 C 284.500 76.442,284.594 76.499,284.708 76.481 C 284.823 76.463,285.048 76.497,285.208 76.557 C 285.369 76.617,285.631 76.717,285.792 76.779 C 285.952 76.840,286.233 76.913,286.417 76.940 C 286.600 76.968,286.917 77.016,287.122 77.047 C 287.326 77.079,287.545 77.156,287.608 77.219 C 287.671 77.282,287.935 77.333,288.194 77.333 C 288.454 77.333,288.667 77.403,288.667 77.489 C 288.667 77.873,299.605 77.840,300.667 77.453 C 300.804 77.403,301.288 77.317,301.741 77.263 C 302.194 77.209,302.613 77.087,302.671 76.993 C 302.729 76.899,302.898 76.869,303.047 76.926 C 303.196 76.983,303.488 76.911,303.696 76.765 C 303.904 76.619,304.245 76.500,304.454 76.500 C 304.663 76.500,304.833 76.426,304.833 76.337 C 304.833 76.247,305.040 76.124,305.292 76.064 C 305.544 76.003,305.855 75.871,305.984 75.769 C 306.113 75.667,306.263 75.590,306.317 75.599 C 306.552 75.634,307.000 75.449,307.000 75.316 C 307.000 75.236,307.244 75.058,307.542 74.919 C 308.059 74.679,308.346 74.501,309.432 73.750 C 309.990 73.364,310.654 72.652,310.661 72.432 C 310.664 72.348,310.905 72.067,311.197 71.807 C 311.488 71.546,311.673 71.333,311.607 71.333 C 311.541 71.333,311.649 71.165,311.848 70.958 C 312.046 70.752,312.351 70.283,312.526 69.917 C 312.701 69.550,312.912 69.137,312.995 69.000 C 313.078 68.862,313.319 68.375,313.531 67.917 C 313.743 67.458,313.973 67.058,314.042 67.028 C 314.110 66.997,314.167 66.871,314.167 66.747 C 314.167 66.623,314.254 66.311,314.361 66.053 C 314.468 65.794,314.563 65.546,314.572 65.500 C 314.581 65.454,314.637 65.341,314.696 65.249 C 314.755 65.156,314.853 64.781,314.915 64.415 C 314.976 64.049,315.070 63.637,315.124 63.500 C 315.267 63.133,315.265 63.139,315.401 62.417 C 315.470 62.050,315.569 61.637,315.621 61.500 C 315.804 61.023,315.847 60.743,315.946 59.375 C 316.005 58.576,315.983 58.000,315.894 58.000 C 315.809 58.000,315.749 57.719,315.759 57.375 C 315.769 57.031,315.718 56.637,315.646 56.500 C 315.574 56.362,315.467 55.593,315.409 54.791 C 315.351 53.989,315.245 53.368,315.173 53.413 C 315.101 53.457,315.004 53.148,314.956 52.726 C 314.909 52.304,314.805 51.912,314.726 51.854 C 314.648 51.797,314.578 51.675,314.571 51.583 C 314.545 51.240,314.129 50.333,313.997 50.333 C 313.922 50.333,313.809 50.103,313.748 49.822 C 313.686 49.541,313.530 49.270,313.401 49.221 C 313.272 49.171,313.167 49.058,313.167 48.968 C 313.167 48.878,312.949 48.567,312.683 48.277 C 312.417 47.987,311.925 47.450,311.590 47.083 C 311.255 46.717,310.871 46.210,310.736 45.958 C 310.602 45.706,310.394 45.500,310.276 45.500 C 310.158 45.500,309.766 45.238,309.405 44.917 C 309.045 44.596,308.656 44.334,308.542 44.333 C 308.427 44.333,308.333 44.258,308.333 44.167 C 308.333 44.075,308.209 44.000,308.056 44.000 C 307.904 44.000,307.470 43.819,307.093 43.598 C 306.715 43.377,306.128 43.143,305.787 43.079 C 305.446 43.015,305.167 42.905,305.167 42.835 C 305.167 42.764,304.810 42.578,304.375 42.422 C 303.940 42.266,303.340 42.051,303.042 41.945 C 302.744 41.839,302.500 41.702,302.500 41.641 C 302.500 41.579,302.200 41.479,301.833 41.417 C 301.467 41.355,301.167 41.228,301.167 41.134 C 301.167 41.041,301.057 41.007,300.922 41.058 C 300.787 41.110,300.636 41.085,300.585 41.002 C 300.534 40.920,300.156 40.802,299.746 40.741 C 299.336 40.679,299.000 40.566,299.000 40.489 C 299.000 40.412,298.737 40.299,298.415 40.239 C 298.093 40.178,297.788 40.061,297.737 39.978 C 297.685 39.896,297.579 39.868,297.500 39.917 C 297.421 39.965,297.309 39.929,297.252 39.836 C 297.194 39.743,296.969 39.667,296.752 39.667 C 296.535 39.667,296.256 39.565,296.132 39.441 C 296.008 39.318,295.515 39.116,295.037 38.993 C 294.558 38.871,294.167 38.718,294.167 38.654 C 294.167 38.590,293.895 38.486,293.563 38.424 C 293.231 38.362,292.818 38.241,292.646 38.155 C 292.474 38.070,292.184 37.925,292.002 37.833 C 291.820 37.742,291.558 37.667,291.419 37.667 C 291.280 37.667,291.167 37.600,291.167 37.519 C 291.167 37.438,291.035 37.324,290.875 37.265 C 290.715 37.207,290.319 36.992,289.995 36.788 C 289.672 36.584,289.169 36.267,288.877 36.084 C 288.585 35.901,288.260 35.590,288.154 35.394 C 288.049 35.197,287.788 34.943,287.573 34.828 C 287.358 34.713,287.191 34.573,287.202 34.518 C 287.212 34.462,287.121 34.192,286.999 33.917 C 286.878 33.642,286.772 33.367,286.764 33.306 C 286.756 33.244,286.694 33.138,286.625 33.069 C 286.449 32.893,286.469 31.500,286.648 31.500 C 286.729 31.500,286.846 31.164,286.907 30.754 C 286.969 30.344,287.091 29.963,287.179 29.909 C 287.267 29.855,287.296 29.740,287.243 29.655 C 287.190 29.570,287.226 29.500,287.323 29.500 C 287.421 29.500,287.500 29.385,287.500 29.245 C 287.500 29.104,287.612 28.947,287.749 28.894 C 287.886 28.841,287.962 28.740,287.918 28.669 C 287.693 28.305,290.226 26.215,290.779 26.309 C 290.887 26.327,291.022 26.265,291.081 26.171 C 291.139 26.077,291.332 26.000,291.510 26.000 C 291.688 26.000,291.833 25.944,291.833 25.875 C 291.833 25.729,294.538 25.755,296.292 25.917 C 296.956 25.978,297.500 26.102,297.500 26.191 C 297.500 26.281,297.631 26.338,297.792 26.318 C 297.952 26.298,298.294 26.368,298.553 26.474 C 298.811 26.580,299.129 26.667,299.261 26.667 C 299.392 26.667,299.500 26.742,299.500 26.833 C 299.500 26.925,299.599 27.000,299.720 27.000 C 299.985 27.000,301.000 27.879,301.000 28.108 C 301.000 28.198,301.134 28.416,301.297 28.594 C 301.759 29.097,302.333 30.094,302.333 30.395 C 302.333 30.544,302.417 30.667,302.519 30.667 C 302.623 30.667,302.667 30.814,302.618 31.000 C 302.570 31.183,302.589 31.333,302.661 31.333 C 302.732 31.333,302.841 31.783,302.903 32.333 C 302.966 32.883,303.096 33.333,303.193 33.333 C 303.290 33.333,303.326 33.446,303.273 33.583 C 303.220 33.721,303.240 33.833,303.318 33.833 C 303.395 33.833,303.500 34.040,303.551 34.292 C 303.631 34.691,304.667 35.570,304.667 35.239 C 304.667 35.177,304.788 35.226,304.936 35.349 C 305.138 35.517,306.141 35.590,308.934 35.640 C 311.022 35.677,312.622 35.771,312.571 35.853 C 312.521 35.934,312.635 36.000,312.823 36.000 C 313.012 36.000,313.167 35.935,313.167 35.855 C 313.167 35.775,313.542 35.660,314.000 35.599 C 314.458 35.538,314.833 35.412,314.833 35.319 C 314.833 35.226,315.058 35.071,315.333 34.975 C 315.608 34.879,315.791 34.733,315.740 34.650 C 315.689 34.568,315.711 34.500,315.789 34.500 C 315.867 34.500,316.047 34.244,316.189 33.931 C 316.491 33.264,316.607 31.167,316.342 31.167 C 316.246 31.167,316.167 30.877,316.167 30.523 C 316.167 29.942,315.988 28.805,315.757 27.917 C 315.710 27.733,315.580 27.208,315.469 26.750 C 315.359 26.292,315.221 25.879,315.163 25.833 C 315.106 25.787,314.961 25.395,314.842 24.961 C 314.723 24.528,314.559 24.213,314.479 24.263 C 314.399 24.312,314.333 24.199,314.333 24.010 C 314.333 23.821,314.246 23.667,314.139 23.667 C 314.032 23.667,313.991 23.620,314.048 23.563 C 314.104 23.507,314.042 23.351,313.909 23.218 C 313.776 23.085,313.667 22.827,313.667 22.645 C 313.667 22.437,313.595 22.358,313.474 22.433 C 313.355 22.507,313.327 22.478,313.402 22.358 C 313.467 22.251,313.404 22.047,313.261 21.903 C 313.117 21.760,313.000 21.544,313.000 21.423 C 313.000 21.301,312.887 21.159,312.750 21.106 C 312.612 21.054,312.499 20.914,312.497 20.797 C 312.496 20.679,312.306 20.404,312.075 20.186 C 311.845 19.967,311.686 19.758,311.723 19.721 C 311.816 19.629,310.137 18.000,309.949 18.000 C 309.866 18.000,309.649 17.811,309.467 17.579 C 309.285 17.348,308.899 17.054,308.610 16.928 C 308.320 16.801,307.844 16.465,307.551 16.182 C 307.258 15.898,306.939 15.667,306.842 15.667 C 306.746 15.667,306.667 15.584,306.667 15.482 C 306.667 15.381,306.554 15.341,306.417 15.394 C 306.279 15.446,306.167 15.433,306.167 15.365 C 306.167 15.263,305.761 15.052,305.000 14.755 C 304.954 14.737,304.692 14.666,304.417 14.597 C 304.142 14.529,303.804 14.429,303.667 14.375 C 303.529 14.322,303.360 14.263,303.292 14.244 C 303.223 14.224,303.148 14.193,303.125 14.175 C 303.050 14.115,302.433 13.998,301.625 13.891 C 301.190 13.834,300.833 13.735,300.833 13.671 C 300.833 13.441,290.524 13.198,290.299 13.423 M373.665 13.390 C 373.620 13.435,373.133 13.491,372.583 13.515 C 372.033 13.539,371.471 13.618,371.333 13.690 C 371.052 13.839,369.151 14.245,368.958 14.197 C 368.890 14.180,368.833 14.234,368.833 14.315 C 368.833 14.454,368.066 14.725,367.947 14.628 C 367.917 14.603,367.762 14.715,367.601 14.875 C 367.441 15.035,367.202 15.167,367.071 15.167 C 366.940 15.167,366.833 15.242,366.833 15.333 C 366.833 15.425,366.777 15.488,366.708 15.473 C 366.640 15.458,366.358 15.545,366.083 15.667 C 365.808 15.788,365.525 15.874,365.454 15.859 C 365.382 15.843,365.281 15.943,365.228 16.082 C 365.174 16.220,365.024 16.333,364.894 16.333 C 364.763 16.333,364.613 16.446,364.560 16.583 C 364.508 16.721,364.390 16.833,364.300 16.833 C 364.090 16.833,363.256 17.466,362.783 17.985 C 362.582 18.207,362.099 18.732,361.711 19.152 C 361.323 19.573,361.004 20.010,361.003 20.125 C 361.001 20.240,360.930 20.333,360.844 20.333 C 360.758 20.333,360.595 20.592,360.481 20.908 C 360.366 21.224,360.210 21.443,360.132 21.395 C 360.055 21.348,360.008 21.370,360.029 21.446 C 360.094 21.687,359.817 22.333,359.648 22.333 C 359.559 22.333,359.502 22.427,359.522 22.542 C 359.568 22.808,359.155 23.667,358.981 23.667 C 358.908 23.667,358.799 23.929,358.739 24.250 C 358.679 24.571,358.573 24.833,358.504 24.833 C 358.436 24.833,358.400 25.021,358.425 25.251 C 358.450 25.480,358.409 25.630,358.334 25.584 C 358.259 25.538,358.146 25.875,358.083 26.333 C 358.020 26.792,357.901 27.167,357.818 27.167 C 357.735 27.167,357.681 27.223,357.698 27.292 C 357.746 27.482,357.476 28.894,357.356 29.083 C 357.298 29.175,357.232 29.475,357.210 29.750 C 357.189 30.025,357.100 30.662,357.014 31.167 C 356.928 31.671,356.852 32.473,356.846 32.948 C 356.839 33.424,356.760 33.859,356.671 33.914 C 356.581 33.970,356.515 34.330,356.524 34.716 C 356.533 35.101,356.456 36.429,356.354 37.667 C 356.130 40.370,356.127 46.770,356.347 52.250 C 356.435 54.450,356.502 56.531,356.497 56.875 C 356.491 57.219,356.555 57.500,356.638 57.500 C 356.722 57.500,356.845 58.194,356.911 59.041 C 356.977 59.889,357.081 60.658,357.141 60.750 C 357.201 60.842,357.264 61.142,357.281 61.417 C 357.322 62.063,357.610 63.249,357.921 64.045 C 358.056 64.391,358.167 64.859,358.167 65.087 C 358.167 65.314,358.239 65.500,358.328 65.500 C 358.417 65.500,358.449 65.606,358.400 65.734 C 358.350 65.863,358.502 66.274,358.738 66.648 C 358.974 67.021,359.167 67.398,359.167 67.486 C 359.167 67.573,359.233 67.819,359.313 68.031 C 359.394 68.243,359.463 68.483,359.466 68.565 C 359.469 68.646,359.535 68.759,359.612 68.815 C 359.689 68.871,359.971 69.329,360.238 69.833 C 360.505 70.337,360.774 70.787,360.834 70.833 C 360.895 70.879,361.020 71.055,361.112 71.223 C 361.391 71.734,363.859 74.167,364.098 74.167 C 364.221 74.167,364.399 74.311,364.493 74.486 C 364.587 74.662,364.889 74.856,365.163 74.916 C 365.438 74.976,365.703 75.090,365.751 75.169 C 365.858 75.341,367.572 76.167,367.823 76.167 C 367.920 76.167,368.000 76.229,368.000 76.306 C 368.000 76.382,368.094 76.451,368.208 76.458 C 368.323 76.466,368.942 76.664,369.583 76.899 C 370.225 77.134,371.027 77.328,371.365 77.330 C 371.704 77.332,372.017 77.392,372.061 77.464 C 372.275 77.810,383.924 77.893,384.136 77.550 C 384.242 77.378,385.603 77.042,386.542 76.955 C 386.702 76.941,386.833 76.878,386.833 76.817 C 386.833 76.755,387.171 76.654,387.583 76.592 C 387.996 76.530,388.333 76.421,388.333 76.350 C 388.333 76.278,388.633 76.121,389.000 76.000 C 389.367 75.879,389.667 75.736,389.667 75.681 C 389.667 75.627,390.023 75.397,390.458 75.171 C 390.894 74.944,391.310 74.663,391.383 74.546 C 391.457 74.429,391.611 74.333,391.727 74.333 C 391.843 74.333,392.151 74.111,392.411 73.839 C 392.671 73.568,392.948 73.384,393.026 73.432 C 393.103 73.480,393.167 73.403,393.167 73.260 C 393.167 73.117,393.244 73.000,393.338 73.000 C 393.548 73.000,395.167 71.351,395.167 71.138 C 395.167 70.985,395.338 70.746,395.871 70.159 C 396.029 69.985,396.204 69.658,396.261 69.433 C 396.317 69.208,396.469 68.984,396.598 68.934 C 396.728 68.884,396.833 68.729,396.833 68.589 C 396.833 68.448,396.908 68.333,397.000 68.333 C 397.092 68.333,397.154 68.277,397.138 68.208 C 397.104 68.065,397.526 67.125,397.679 67.000 C 397.736 66.954,397.831 66.716,397.891 66.470 C 397.951 66.224,398.113 65.911,398.250 65.774 C 398.388 65.636,398.500 65.425,398.501 65.304 C 398.502 65.182,398.651 64.858,398.833 64.583 C 399.067 64.231,399.165 63.801,399.166 63.125 C 399.166 62.535,399.238 62.167,399.351 62.167 C 399.467 62.167,399.496 62.005,399.428 61.734 C 399.368 61.496,399.399 61.205,399.497 61.087 C 399.897 60.605,399.793 55.460,399.375 55.042 C 399.169 54.835,398.999 54.723,398.997 54.792 C 398.996 54.860,398.927 54.809,398.843 54.677 C 398.640 54.356,389.745 54.210,388.632 54.509 C 388.239 54.615,387.896 54.692,387.871 54.680 C 387.826 54.659,387.132 55.411,386.878 55.757 C 386.696 56.003,386.632 56.297,386.540 57.292 C 386.495 57.773,386.390 58.167,386.305 58.167 C 386.221 58.167,386.169 58.260,386.190 58.375 C 386.260 58.757,385.971 60.333,385.831 60.333 C 385.755 60.333,385.601 60.615,385.490 60.958 C 385.060 62.282,383.796 63.733,382.576 64.302 C 382.122 64.514,381.622 64.757,381.465 64.841 C 381.308 64.926,381.057 64.947,380.906 64.890 C 380.753 64.831,380.571 64.885,380.491 65.014 C 380.308 65.311,375.019 65.356,374.652 65.063 C 374.522 64.960,374.285 64.897,374.124 64.923 C 373.963 64.949,373.869 64.910,373.915 64.836 C 373.960 64.763,373.798 64.652,373.554 64.591 C 373.106 64.478,372.385 63.996,372.405 63.823 C 372.412 63.772,372.135 63.483,371.792 63.181 C 371.448 62.879,371.167 62.527,371.167 62.399 C 371.167 62.271,371.098 62.167,371.013 62.167 C 370.929 62.167,370.810 61.942,370.750 61.668 C 370.690 61.393,370.546 61.112,370.430 61.043 C 370.193 60.900,369.826 59.423,369.779 58.417 C 369.761 58.050,369.685 57.653,369.610 57.535 C 369.534 57.417,369.472 56.986,369.472 56.577 C 369.472 56.168,369.422 55.833,369.361 55.833 C 369.300 55.833,369.258 55.102,369.268 54.208 C 369.278 53.315,369.219 52.498,369.138 52.394 C 368.948 52.150,368.955 38.799,369.145 38.676 C 369.224 38.625,369.285 38.246,369.281 37.833 C 369.269 36.605,369.524 33.763,369.662 33.583 C 369.733 33.492,369.775 33.117,369.756 32.750 C 369.737 32.383,369.777 32.008,369.846 31.917 C 369.915 31.825,369.972 31.693,369.972 31.623 C 369.971 31.201,370.215 30.167,370.315 30.167 C 370.380 30.167,370.528 29.904,370.644 29.583 C 370.760 29.262,370.925 29.000,371.011 29.000 C 371.097 29.000,371.167 28.926,371.167 28.836 C 371.167 28.162,373.582 26.035,374.115 26.239 C 374.235 26.285,374.333 26.257,374.333 26.176 C 374.333 25.660,379.474 25.692,381.250 26.219 C 382.399 26.560,384.447 27.667,383.929 27.667 C 383.862 27.667,384.020 27.889,384.279 28.161 C 385.480 29.422,386.072 30.883,386.595 33.875 C 386.655 34.219,386.783 34.500,386.880 34.500 C 386.976 34.500,387.012 34.544,386.958 34.597 C 386.011 35.545,397.106 36.146,398.654 35.231 C 398.923 35.072,399.194 34.786,399.257 34.596 C 399.320 34.406,399.388 34.212,399.409 34.167 C 399.429 34.121,399.499 33.963,399.564 33.817 C 399.630 33.670,399.668 33.482,399.648 33.400 C 399.629 33.317,399.674 33.111,399.748 32.940 C 399.822 32.770,399.798 31.907,399.694 31.024 C 399.490 29.288,399.488 29.280,399.173 28.167 C 399.057 27.754,398.946 27.342,398.926 27.250 C 398.811 26.705,398.419 25.553,398.290 25.382 C 398.206 25.272,398.186 25.103,398.245 25.007 C 398.305 24.912,398.282 24.833,398.195 24.833 C 398.107 24.833,397.989 24.646,397.932 24.417 C 397.874 24.188,397.759 24.000,397.677 24.000 C 397.594 24.000,397.477 23.775,397.417 23.500 C 397.356 23.225,397.243 23.000,397.166 23.000 C 397.088 23.000,396.829 22.588,396.591 22.084 C 396.047 20.935,395.407 19.982,395.271 20.118 C 395.213 20.175,395.167 20.149,395.167 20.059 C 395.167 19.836,392.892 17.500,392.675 17.500 C 392.579 17.500,392.500 17.434,392.500 17.352 C 392.500 17.271,392.238 17.080,391.917 16.928 C 391.596 16.776,391.333 16.598,391.332 16.534 C 391.330 16.347,389.463 15.201,388.958 15.077 C 388.706 15.015,388.500 14.904,388.500 14.830 C 388.500 14.756,388.200 14.645,387.833 14.583 C 387.467 14.521,387.167 14.407,387.167 14.328 C 387.167 14.250,387.003 14.217,386.804 14.256 C 386.605 14.294,386.361 14.259,386.262 14.178 C 386.164 14.097,385.708 13.977,385.250 13.911 C 384.792 13.845,384.312 13.707,384.183 13.604 C 383.950 13.417,373.844 13.212,373.665 13.390 M5.042 14.051 C 4.469 14.131,4.000 14.245,4.000 14.306 C 4.000 14.367,3.812 14.635,3.583 14.901 C 3.354 15.167,3.167 15.486,3.167 15.609 C 3.167 15.732,3.087 15.833,2.990 15.833 C 2.892 15.833,2.834 15.965,2.860 16.125 C 2.887 16.285,2.836 16.529,2.748 16.667 C 2.617 16.871,2.454 33.283,2.532 38.417 C 2.542 39.058,2.566 47.571,2.587 57.333 C 2.607 67.096,2.633 75.241,2.645 75.434 C 2.668 75.811,3.372 76.667,3.659 76.667 C 3.755 76.667,3.833 76.729,3.833 76.806 C 3.833 77.021,4.153 77.046,6.875 77.039 C 11.575 77.027,13.333 76.966,13.333 76.816 C 13.333 76.734,13.470 76.667,13.637 76.667 C 13.920 76.667,14.811 75.840,14.541 75.828 C 14.472 75.825,14.555 75.718,14.725 75.589 C 14.895 75.461,14.987 75.281,14.931 75.189 C 14.874 75.098,14.896 74.981,14.979 74.929 C 15.144 74.827,15.280 63.369,15.202 56.125 L 15.154 51.667 16.827 51.667 C 17.747 51.667,18.500 51.729,18.500 51.805 C 18.500 51.984,25.185 52.023,25.412 51.846 C 25.572 51.721,27.224 51.504,28.458 51.446 C 28.756 51.432,29.000 51.363,29.000 51.294 C 29.000 51.224,29.261 51.167,29.580 51.167 C 30.427 51.167,32.500 50.788,32.500 50.633 C 32.500 50.560,32.633 50.500,32.795 50.500 C 32.958 50.500,33.474 50.248,33.942 49.940 C 34.410 49.631,35.021 49.278,35.301 49.154 C 35.581 49.031,35.773 48.870,35.728 48.798 C 35.684 48.726,35.767 48.667,35.914 48.667 C 36.182 48.667,37.202 48.025,37.306 47.791 C 37.337 47.721,37.430 47.707,37.514 47.759 C 37.598 47.811,37.667 47.774,37.667 47.677 C 37.667 47.579,37.769 47.500,37.893 47.500 C 38.018 47.500,38.261 47.312,38.433 47.083 C 38.605 46.854,38.839 46.667,38.952 46.667 C 39.066 46.667,39.281 46.480,39.431 46.251 C 39.581 46.023,39.759 45.870,39.826 45.912 C 39.894 45.954,40.044 45.812,40.160 45.596 C 40.275 45.380,40.549 45.107,40.768 44.990 C 40.987 44.873,41.137 44.748,41.101 44.712 C 41.064 44.676,41.221 44.446,41.448 44.201 C 41.675 43.956,42.001 43.454,42.173 43.086 C 42.346 42.718,42.639 42.192,42.825 41.917 C 43.012 41.642,43.165 41.285,43.166 41.125 C 43.166 40.965,43.236 40.833,43.321 40.833 C 43.406 40.833,43.569 40.402,43.682 39.875 C 43.796 39.348,43.949 38.837,44.022 38.739 C 44.096 38.641,44.207 38.135,44.268 37.614 C 44.329 37.093,44.431 36.667,44.495 36.667 C 44.763 36.667,44.948 29.423,44.689 29.110 C 44.593 28.994,44.557 28.734,44.610 28.533 C 44.663 28.331,44.629 28.167,44.534 28.167 C 44.440 28.167,44.309 27.851,44.244 27.465 C 44.179 27.079,44.069 26.647,43.999 26.506 C 43.826 26.154,43.500 24.735,43.500 24.331 C 43.500 24.149,43.428 24.000,43.341 24.000 C 43.253 24.000,43.133 23.738,43.072 23.417 C 43.012 23.096,42.888 22.833,42.797 22.833 C 42.706 22.833,42.674 22.721,42.727 22.583 C 42.780 22.446,42.758 22.333,42.680 22.333 C 42.601 22.333,42.491 22.165,42.435 21.958 C 42.379 21.752,41.958 21.172,41.499 20.669 C 41.040 20.167,40.622 19.623,40.571 19.461 C 40.520 19.299,40.404 19.167,40.314 19.167 C 40.224 19.167,39.893 18.917,39.578 18.611 C 39.264 18.306,38.724 17.912,38.378 17.736 C 38.033 17.561,37.702 17.351,37.644 17.270 C 37.585 17.190,37.454 17.175,37.352 17.238 C 37.250 17.301,37.167 17.282,37.167 17.195 C 37.167 17.107,36.976 16.988,36.743 16.930 C 36.510 16.871,36.364 16.752,36.419 16.664 C 36.474 16.575,36.403 16.548,36.259 16.603 C 36.116 16.658,36.000 16.619,36.000 16.518 C 36.000 16.416,35.920 16.333,35.821 16.333 C 35.723 16.333,35.537 16.228,35.408 16.099 C 35.279 15.969,34.871 15.813,34.503 15.750 C 34.084 15.680,33.874 15.569,33.943 15.457 C 34.014 15.343,33.954 15.315,33.783 15.381 C 33.633 15.438,33.470 15.419,33.419 15.338 C 33.369 15.256,32.918 15.139,32.416 15.076 C 31.914 15.013,31.539 14.906,31.581 14.836 C 31.624 14.767,31.530 14.717,31.371 14.724 C 30.632 14.759,28.228 14.452,28.043 14.299 C 27.929 14.205,27.613 14.161,27.339 14.201 C 27.065 14.242,26.817 14.200,26.787 14.110 C 26.717 13.901,6.514 13.846,5.042 14.051 M56.625 13.947 C 56.281 13.987,56.000 14.099,56.000 14.195 C 56.000 14.290,55.882 14.324,55.738 14.268 C 55.125 14.033,54.552 15.104,54.587 16.419 C 54.614 17.445,54.692 17.769,55.090 18.515 C 55.280 18.871,55.603 20.255,55.699 21.125 C 55.712 21.240,55.785 21.333,55.861 21.333 C 55.938 21.333,56.000 21.446,56.000 21.583 C 56.000 21.721,56.071 21.833,56.157 21.833 C 56.244 21.833,56.285 21.983,56.250 22.167 C 56.215 22.350,56.247 22.500,56.321 22.500 C 56.396 22.500,56.507 22.875,56.568 23.333 C 56.628 23.792,56.744 24.167,56.823 24.167 C 56.903 24.167,56.934 24.300,56.891 24.462 C 56.849 24.625,56.930 24.981,57.073 25.254 C 57.215 25.527,57.332 25.881,57.332 26.042 C 57.333 26.202,57.395 26.333,57.469 26.333 C 57.544 26.333,57.706 26.840,57.828 27.458 C 57.951 28.077,58.111 28.696,58.185 28.833 C 58.258 28.971,58.479 29.646,58.677 30.333 C 58.874 31.021,59.077 31.696,59.127 31.833 C 59.178 31.971,59.204 32.177,59.186 32.292 C 59.167 32.406,59.221 32.500,59.305 32.500 C 59.389 32.500,59.515 32.744,59.584 33.042 C 59.653 33.340,59.737 33.677,59.771 33.792 C 59.805 33.906,59.859 34.094,59.891 34.208 C 59.923 34.323,60.035 34.628,60.141 34.886 C 60.247 35.144,60.333 35.496,60.333 35.668 C 60.333 35.840,60.400 36.021,60.481 36.072 C 60.625 36.161,60.918 37.292,60.861 37.542 C 60.846 37.610,60.901 37.667,60.984 37.667 C 61.067 37.667,61.096 37.817,61.048 38.000 C 61.000 38.183,61.038 38.333,61.133 38.333 C 61.227 38.333,61.357 38.652,61.422 39.042 C 61.488 39.431,61.602 39.789,61.678 39.837 C 61.753 39.885,61.911 40.298,62.029 40.754 C 62.148 41.210,62.290 41.621,62.345 41.667 C 62.526 41.817,62.832 42.868,62.738 43.019 C 62.688 43.100,62.714 43.167,62.795 43.167 C 62.877 43.167,63.025 43.485,63.124 43.875 C 63.336 44.706,63.776 45.977,63.976 46.333 C 64.053 46.471,64.097 46.715,64.073 46.875 C 64.049 47.035,64.092 47.167,64.169 47.167 C 64.246 47.167,64.361 47.578,64.424 48.081 C 64.487 48.585,64.595 48.961,64.664 48.918 C 64.734 48.875,64.832 49.149,64.883 49.527 C 64.933 49.905,65.059 50.267,65.163 50.331 C 65.266 50.395,65.335 50.515,65.315 50.599 C 65.296 50.682,65.367 50.961,65.473 51.219 C 65.580 51.477,65.667 51.800,65.667 51.937 C 65.667 52.074,65.735 52.144,65.819 52.092 C 65.902 52.041,66.021 52.299,66.083 52.666 C 66.145 53.033,66.272 53.333,66.366 53.333 C 66.459 53.333,66.493 53.443,66.442 53.578 C 66.390 53.713,66.413 53.863,66.493 53.912 C 66.572 53.961,66.688 54.301,66.750 54.668 C 66.812 55.034,66.924 55.333,66.998 55.333 C 67.073 55.333,67.186 55.783,67.250 56.333 C 67.314 56.883,67.427 57.333,67.501 57.333 C 67.575 57.333,67.596 57.483,67.548 57.667 C 67.500 57.850,67.539 58.000,67.634 58.000 C 67.729 58.000,67.855 58.244,67.913 58.542 C 67.972 58.840,68.081 59.233,68.156 59.417 C 68.270 59.694,68.555 60.813,68.739 61.702 C 68.763 61.820,68.839 62.067,68.907 62.250 C 68.975 62.433,69.114 62.808,69.214 63.083 C 69.315 63.358,69.462 63.628,69.541 63.682 C 69.619 63.736,69.696 63.942,69.710 64.140 C 69.725 64.338,69.801 64.500,69.879 64.500 C 69.956 64.500,69.973 64.575,69.917 64.667 C 69.860 64.758,69.880 64.833,69.960 64.833 C 70.041 64.833,70.208 65.317,70.332 65.909 C 70.455 66.501,70.609 66.952,70.673 66.913 C 70.777 66.849,70.985 67.745,71.049 68.529 C 71.061 68.683,71.122 68.778,71.184 68.739 C 71.245 68.701,71.341 68.913,71.397 69.210 C 71.528 69.909,71.568 70.043,71.714 70.277 C 71.780 70.383,71.789 70.589,71.733 70.735 C 71.677 70.881,71.714 71.000,71.816 71.000 C 71.917 71.000,72.000 71.183,72.000 71.407 C 72.000 71.631,72.065 71.854,72.144 71.903 C 72.224 71.952,72.250 72.192,72.203 72.437 C 72.150 72.716,72.182 72.843,72.288 72.778 C 72.385 72.718,72.497 72.918,72.551 73.248 C 72.763 74.554,74.226 76.667,74.918 76.667 C 75.066 76.667,75.149 76.727,75.103 76.802 C 75.057 76.876,75.503 76.932,76.093 76.927 C 76.684 76.921,77.167 76.959,77.167 77.012 C 77.167 77.064,78.779 77.126,80.750 77.149 C 83.417 77.180,84.333 77.141,84.333 76.994 C 84.333 76.886,84.439 76.838,84.568 76.888 C 84.814 76.982,85.333 76.521,85.333 76.207 C 85.333 76.107,85.505 75.887,85.715 75.720 C 85.924 75.553,86.196 75.173,86.318 74.875 C 86.440 74.577,86.600 74.333,86.674 74.333 C 86.747 74.333,86.859 74.090,86.923 73.792 C 86.986 73.494,87.111 73.160,87.200 73.049 C 87.289 72.938,87.314 72.770,87.255 72.674 C 87.195 72.578,87.223 72.500,87.316 72.500 C 87.409 72.500,87.534 72.237,87.594 71.917 C 87.655 71.596,87.766 71.333,87.842 71.333 C 87.917 71.333,87.979 71.202,87.978 71.042 C 87.977 70.641,88.388 69.500,88.533 69.500 C 88.598 69.500,88.701 69.237,88.761 68.917 C 88.821 68.596,88.935 68.333,89.013 68.333 C 89.092 68.333,89.113 68.220,89.059 68.081 C 89.006 67.943,89.037 67.736,89.129 67.623 C 89.220 67.509,89.347 67.173,89.411 66.875 C 89.474 66.577,89.587 66.333,89.661 66.333 C 89.736 66.333,89.849 66.052,89.913 65.708 C 90.070 64.870,90.701 62.938,90.852 62.832 C 90.919 62.785,91.027 62.522,91.093 62.248 C 91.159 61.974,91.279 61.666,91.359 61.563 C 91.440 61.460,91.459 61.254,91.402 61.104 C 91.344 60.955,91.380 60.833,91.482 60.833 C 91.584 60.833,91.667 60.689,91.667 60.512 C 91.667 60.335,91.760 60.091,91.875 59.970 C 91.990 59.849,92.085 59.675,92.086 59.583 C 92.090 59.313,92.530 58.100,92.703 57.882 C 92.790 57.772,92.814 57.603,92.755 57.507 C 92.695 57.412,92.726 57.333,92.823 57.333 C 92.921 57.333,93.000 57.146,93.000 56.917 C 93.000 56.688,93.067 56.500,93.149 56.500 C 93.230 56.500,93.394 56.013,93.512 55.417 C 93.631 54.821,93.789 54.333,93.864 54.333 C 93.939 54.333,94.000 54.202,94.001 54.042 C 94.002 53.881,94.100 53.563,94.219 53.333 C 94.338 53.104,94.424 52.713,94.410 52.465 C 94.397 52.216,94.441 52.047,94.508 52.088 C 94.575 52.130,94.678 51.909,94.736 51.599 C 94.833 51.081,95.116 50.361,95.508 49.632 C 95.592 49.475,95.612 49.219,95.552 49.063 C 95.485 48.886,95.509 48.819,95.618 48.886 C 95.722 48.951,95.833 48.737,95.894 48.352 C 95.951 47.999,96.110 47.495,96.247 47.230 C 96.385 46.966,96.498 46.623,96.499 46.468 C 96.500 46.313,96.570 46.143,96.656 46.090 C 96.742 46.036,96.784 45.843,96.748 45.659 C 96.713 45.475,96.749 45.365,96.828 45.414 C 96.908 45.463,97.026 45.259,97.091 44.960 C 97.156 44.661,97.312 44.269,97.437 44.089 C 97.562 43.909,97.712 43.403,97.770 42.964 C 97.829 42.526,97.937 42.167,98.011 42.167 C 98.086 42.167,98.197 41.829,98.259 41.417 C 98.321 41.004,98.446 40.667,98.538 40.667 C 98.630 40.667,98.669 40.477,98.625 40.246 C 98.581 40.015,98.601 39.791,98.670 39.748 C 98.738 39.706,98.846 39.259,98.909 38.755 C 98.972 38.251,99.098 37.792,99.190 37.736 C 99.281 37.679,99.316 37.528,99.267 37.400 C 99.217 37.272,99.250 37.167,99.339 37.167 C 99.427 37.167,99.500 36.979,99.500 36.750 C 99.500 36.521,99.563 36.333,99.639 36.333 C 99.715 36.333,99.787 36.240,99.798 36.125 C 99.849 35.596,100.236 34.333,100.347 34.333 C 100.415 34.333,100.521 34.033,100.583 33.667 C 100.645 33.300,100.754 33.000,100.825 33.000 C 100.896 33.000,100.918 32.813,100.874 32.583 C 100.829 32.349,100.872 32.167,100.973 32.167 C 101.071 32.167,101.202 31.885,101.264 31.542 C 101.326 31.198,101.444 30.786,101.527 30.627 C 101.609 30.468,101.742 30.018,101.823 29.627 C 102.130 28.150,102.549 26.741,102.752 26.500 C 102.869 26.363,103.016 25.932,103.080 25.543 C 103.143 25.153,103.258 24.797,103.333 24.750 C 103.409 24.703,103.522 24.365,103.583 23.999 C 103.645 23.633,103.762 23.333,103.843 23.333 C 103.923 23.333,103.946 23.221,103.894 23.083 C 103.841 22.946,103.872 22.833,103.963 22.833 C 104.054 22.833,104.179 22.496,104.241 22.083 C 104.303 21.671,104.418 21.333,104.496 21.333 C 104.574 21.333,104.691 21.016,104.756 20.629 C 104.822 20.241,104.971 19.772,105.088 19.587 C 105.205 19.402,105.351 19.006,105.414 18.708 C 105.476 18.410,105.591 18.167,105.670 18.167 C 105.825 18.167,105.828 18.142,105.841 16.377 C 105.849 15.383,105.790 15.107,105.509 14.804 C 105.321 14.602,105.167 14.379,105.167 14.308 C 105.167 13.822,95.988 13.693,95.412 14.171 C 95.316 14.250,95.093 14.293,94.914 14.267 C 94.516 14.208,92.929 15.751,93.102 16.030 C 93.173 16.146,93.143 16.172,93.024 16.098 C 92.898 16.020,92.794 16.157,92.727 16.489 C 92.671 16.770,92.568 17.000,92.498 17.000 C 92.428 17.000,92.318 17.281,92.253 17.624 C 92.189 17.967,92.088 18.323,92.029 18.415 C 91.970 18.508,91.918 18.696,91.914 18.833 C 91.899 19.320,91.425 20.667,91.269 20.667 C 91.182 20.667,91.155 20.711,91.209 20.764 C 91.348 20.904,90.999 21.833,90.807 21.833 C 90.719 21.833,90.692 21.906,90.747 21.995 C 90.802 22.084,90.731 22.380,90.590 22.653 C 90.449 22.927,90.333 23.308,90.333 23.502 C 90.333 23.699,90.259 23.807,90.163 23.747 C 90.069 23.689,90.008 23.704,90.028 23.779 C 90.081 23.984,89.815 25.058,89.663 25.250 C 89.591 25.342,89.490 25.642,89.439 25.917 C 89.388 26.192,89.299 26.679,89.240 27.000 C 89.182 27.321,89.078 27.621,89.009 27.667 C 88.940 27.712,88.874 27.863,88.861 28.000 C 88.799 28.694,88.611 29.333,88.470 29.333 C 88.382 29.333,88.358 29.483,88.417 29.667 C 88.475 29.850,88.449 30.000,88.359 30.000 C 88.269 30.000,88.143 30.319,88.078 30.708 C 88.012 31.098,87.902 31.454,87.833 31.500 C 87.763 31.546,87.664 31.887,87.613 32.257 C 87.561 32.628,87.409 33.265,87.275 33.674 C 87.140 34.082,86.980 34.660,86.919 34.958 C 86.857 35.256,86.733 35.500,86.642 35.500 C 86.552 35.500,86.525 35.650,86.583 35.833 C 86.642 36.017,86.618 36.167,86.530 36.167 C 86.443 36.167,86.321 36.504,86.259 36.917 C 86.197 37.329,86.078 37.667,85.996 37.667 C 85.913 37.667,85.795 38.040,85.735 38.497 C 85.674 38.953,85.557 39.285,85.475 39.234 C 85.392 39.184,85.340 39.204,85.358 39.279 C 85.426 39.565,84.950 41.500,84.812 41.500 C 84.732 41.500,84.679 41.556,84.694 41.625 C 84.736 41.818,84.499 42.715,84.318 43.048 C 84.228 43.213,84.200 43.419,84.254 43.507 C 84.309 43.595,84.282 43.667,84.195 43.667 C 84.108 43.667,83.985 43.948,83.921 44.292 C 83.857 44.635,83.587 45.391,83.319 45.970 C 83.052 46.549,82.833 47.163,82.833 47.333 C 82.833 47.503,82.719 47.757,82.580 47.896 C 82.441 48.035,82.341 48.209,82.357 48.283 C 82.374 48.356,82.300 48.628,82.194 48.886 C 82.087 49.144,82.000 49.458,82.000 49.584 C 82.000 49.710,81.934 49.855,81.852 49.905 C 81.771 49.955,81.652 50.278,81.587 50.623 C 81.523 50.968,81.393 51.344,81.298 51.458 C 81.203 51.573,81.182 51.667,81.250 51.667 C 81.318 51.667,81.300 51.760,81.210 51.875 C 81.120 51.990,80.995 52.308,80.932 52.583 C 80.772 53.287,80.271 54.499,80.141 54.499 C 80.080 54.500,80.070 54.650,80.118 54.833 C 80.167 55.020,80.123 55.167,80.019 55.167 C 79.917 55.167,79.833 55.329,79.833 55.528 C 79.833 56.081,79.647 55.771,79.631 55.190 C 79.623 54.908,79.561 54.712,79.494 54.754 C 79.380 54.824,79.069 53.082,79.142 52.779 C 79.160 52.704,79.104 52.686,79.016 52.740 C 78.928 52.795,78.807 52.432,78.743 51.919 C 78.680 51.414,78.557 51.000,78.470 51.000 C 78.382 51.000,78.358 50.850,78.417 50.667 C 78.475 50.483,78.449 50.333,78.358 50.333 C 78.268 50.333,78.118 49.976,78.024 49.538 C 77.930 49.101,77.737 48.520,77.594 48.247 C 77.452 47.973,77.335 47.596,77.334 47.408 C 77.334 47.220,77.267 46.995,77.187 46.908 C 76.983 46.688,76.590 45.478,76.608 45.125 C 76.616 44.965,76.568 44.833,76.500 44.833 C 76.432 44.833,76.327 44.458,76.266 44.000 C 76.205 43.542,76.090 43.167,76.011 43.167 C 75.931 43.167,75.795 42.773,75.707 42.292 C 75.510 41.213,75.440 40.940,75.333 40.833 C 75.173 40.673,74.790 39.576,74.577 38.667 C 74.458 38.162,74.347 37.712,74.329 37.667 C 74.312 37.621,74.295 37.379,74.293 37.129 C 74.290 36.879,74.223 36.715,74.144 36.764 C 74.065 36.813,74.000 36.566,74.000 36.216 C 74.000 35.865,73.860 35.317,73.688 34.997 C 73.517 34.677,73.320 34.078,73.251 33.666 C 73.181 33.254,73.022 32.769,72.896 32.588 C 72.770 32.407,72.667 32.055,72.667 31.806 C 72.667 31.557,72.590 31.305,72.496 31.247 C 72.401 31.189,72.339 31.053,72.356 30.946 C 72.373 30.838,72.300 30.539,72.193 30.281 C 72.087 30.023,72.000 29.704,72.000 29.572 C 72.000 29.441,71.934 29.333,71.852 29.333 C 71.771 29.333,71.656 29.013,71.598 28.621 C 71.539 28.229,71.380 27.695,71.245 27.435 C 71.110 27.175,71.000 26.877,70.999 26.773 C 70.998 26.669,70.889 26.374,70.755 26.118 C 70.622 25.862,70.462 25.375,70.401 25.035 C 70.340 24.695,70.223 24.332,70.142 24.229 C 70.061 24.126,70.044 23.913,70.105 23.754 C 70.166 23.596,70.134 23.416,70.034 23.354 C 69.934 23.293,69.803 22.869,69.742 22.413 C 69.682 21.957,69.571 21.508,69.498 21.417 C 69.424 21.325,69.310 20.968,69.246 20.623 C 69.182 20.278,69.066 19.957,68.988 19.909 C 68.911 19.862,68.890 19.713,68.942 19.578 C 68.993 19.443,68.959 19.333,68.866 19.333 C 68.772 19.333,68.643 19.015,68.579 18.625 C 68.515 18.235,68.408 17.842,68.342 17.750 C 68.277 17.658,68.123 17.152,68.001 16.625 C 67.880 16.098,67.717 15.667,67.640 15.667 C 67.563 15.667,67.500 15.595,67.500 15.508 C 67.500 15.243,66.769 14.603,66.073 14.259 C 65.426 13.939,58.605 13.714,56.625 13.947 M151.140 13.985 C 149.579 14.102,149.515 14.123,149.060 14.665 C 148.124 15.776,148.172 15.051,148.100 29.394 C 148.050 39.278,147.980 42.893,147.831 43.298 C 147.629 43.848,147.646 47.584,147.935 65.291 C 147.991 68.705,147.977 71.630,147.905 71.791 C 147.833 71.952,147.768 72.944,147.762 73.996 L 147.750 75.909 148.375 76.474 C 148.798 76.856,149.108 77.011,149.333 76.952 C 149.517 76.904,149.667 76.920,149.667 76.989 C 149.667 77.057,151.708 77.161,154.202 77.220 C 159.255 77.340,159.676 77.259,159.926 76.125 C 159.981 75.873,160.086 75.667,160.159 75.667 C 160.232 75.667,160.300 74.710,160.309 73.542 C 160.319 72.373,160.403 70.442,160.498 69.250 C 160.601 67.950,160.652 62.000,160.626 54.375 C 160.592 44.296,160.626 41.667,160.792 41.667 C 160.906 41.667,161.000 41.755,161.000 41.864 C 161.000 42.113,161.650 43.500,161.923 43.833 C 162.035 43.971,162.183 44.271,162.251 44.500 C 162.319 44.729,162.515 45.051,162.687 45.215 C 162.859 45.379,163.000 45.605,163.000 45.717 C 163.000 45.828,163.172 46.107,163.382 46.335 C 163.593 46.563,164.010 47.180,164.309 47.705 C 164.609 48.230,164.918 48.700,164.997 48.748 C 165.076 48.797,165.190 49.061,165.250 49.335 C 165.311 49.609,165.415 49.833,165.484 49.833 C 165.601 49.833,166.117 50.882,166.487 51.875 C 166.581 52.127,166.735 52.333,166.829 52.333 C 166.923 52.333,167.000 52.442,167.000 52.575 C 167.000 52.708,167.244 53.054,167.542 53.344 C 167.840 53.635,167.971 53.814,167.833 53.743 C 167.696 53.671,167.752 53.799,167.958 54.026 C 168.165 54.252,168.333 54.565,168.333 54.719 C 168.333 54.874,168.410 55.000,168.504 55.000 C 168.598 55.000,168.751 55.169,168.845 55.375 C 168.938 55.581,169.122 55.938,169.255 56.167 C 169.387 56.396,169.496 56.765,169.498 56.986 C 169.499 57.208,169.548 57.341,169.606 57.283 C 169.705 57.184,169.947 57.514,171.103 59.333 C 171.580 60.084,172.041 60.977,172.069 61.204 C 172.077 61.271,172.346 61.571,172.667 61.871 L 173.250 62.417 175.132 62.415 C 176.601 62.413,177.047 62.360,177.165 62.170 C 177.248 62.036,177.365 61.976,177.425 62.036 C 177.486 62.097,177.621 62.075,177.726 61.987 C 178.320 61.491,178.843 60.998,178.852 60.925 C 178.899 60.550,179.063 60.167,179.175 60.167 C 179.250 60.167,179.362 59.998,179.425 59.792 C 179.488 59.585,179.655 59.285,179.796 59.125 C 179.936 58.965,179.997 58.833,179.931 58.833 C 179.865 58.833,179.971 58.608,180.167 58.333 C 180.362 58.058,180.461 57.832,180.386 57.831 C 180.311 57.829,180.362 57.757,180.500 57.670 C 180.637 57.583,180.754 57.453,180.758 57.381 C 180.762 57.309,180.931 56.987,181.132 56.667 C 181.334 56.346,181.499 55.990,181.499 55.875 C 181.500 55.760,181.575 55.667,181.667 55.667 C 181.758 55.667,181.833 55.485,181.833 55.262 C 181.833 55.039,181.945 54.745,182.082 54.608 C 182.219 54.471,182.358 54.222,182.390 54.054 C 182.500 53.488,182.824 52.833,182.996 52.833 C 183.090 52.833,183.167 52.721,183.167 52.583 C 183.167 52.446,183.246 52.333,183.342 52.333 C 183.438 52.333,183.592 52.119,183.683 51.857 C 183.775 51.595,184.033 51.283,184.258 51.163 C 184.482 51.042,184.631 50.909,184.589 50.867 C 184.547 50.824,184.622 50.633,184.756 50.441 C 184.890 50.249,185.000 49.933,185.000 49.738 C 185.000 49.544,185.150 49.211,185.333 49.000 C 185.517 48.789,185.667 48.477,185.667 48.308 C 185.667 48.139,185.742 48.000,185.833 48.000 C 185.925 48.000,186.000 47.885,186.000 47.745 C 186.000 47.604,186.117 47.445,186.260 47.390 C 186.402 47.335,186.480 47.187,186.431 47.062 C 186.383 46.936,186.418 46.833,186.509 46.833 C 186.600 46.833,186.746 46.646,186.833 46.417 C 186.920 46.188,187.069 46.000,187.163 46.000 C 187.256 46.000,187.333 45.846,187.333 45.657 C 187.333 45.468,187.407 45.359,187.498 45.415 C 187.593 45.474,187.620 45.406,187.562 45.254 C 187.500 45.094,187.620 44.844,187.867 44.614 C 188.091 44.407,188.249 44.162,188.218 44.070 C 188.187 43.977,188.298 43.755,188.465 43.576 C 188.632 43.397,188.785 43.195,188.806 43.127 C 188.827 43.060,189.010 42.647,189.213 42.210 L 189.583 41.417 189.626 55.208 C 189.654 64.210,189.726 69.000,189.834 69.000 C 189.936 69.000,190.000 69.842,190.000 71.167 C 190.000 72.568,189.938 73.333,189.825 73.333 C 189.721 73.333,189.666 73.672,189.688 74.167 C 189.709 74.625,189.788 75.000,189.863 75.000 C 189.938 75.000,190.000 75.220,190.000 75.489 C 190.000 77.268,190.488 77.410,196.162 77.280 C 198.866 77.217,200.770 77.108,200.801 77.013 C 200.831 76.925,200.959 76.892,201.086 76.941 C 201.212 76.989,201.414 76.946,201.533 76.845 C 202.620 75.921,202.588 76.003,202.570 74.250 C 202.556 72.861,202.362 46.537,202.235 28.876 C 202.195 23.262,202.226 18.256,202.306 17.751 C 202.385 17.246,202.396 16.833,202.330 16.833 C 202.264 16.833,202.160 16.458,202.099 16.000 C 202.038 15.542,201.933 15.167,201.865 15.167 C 201.797 15.167,201.509 14.960,201.225 14.708 C 200.592 14.146,200.642 14.159,198.500 13.963 C 196.396 13.771,192.055 13.879,191.804 14.130 C 191.706 14.227,191.537 14.273,191.429 14.232 C 191.038 14.082,189.172 16.783,189.464 17.075 C 189.514 17.126,189.431 17.167,189.278 17.167 C 189.125 17.167,189.015 17.223,189.033 17.292 C 189.100 17.547,188.813 18.139,188.577 18.229 C 188.443 18.281,188.333 18.480,188.333 18.671 C 188.333 18.892,188.263 18.976,188.141 18.901 C 188.021 18.827,187.994 18.855,188.068 18.976 C 188.134 19.082,188.089 19.279,187.969 19.412 C 187.458 19.979,187.333 20.164,187.333 20.353 C 187.333 20.598,186.509 22.041,186.285 22.190 C 186.196 22.248,186.183 22.398,186.255 22.523 C 186.328 22.648,186.325 22.694,186.250 22.626 C 186.101 22.491,186.075 22.531,184.799 24.872 C 184.662 25.123,184.508 25.286,184.457 25.235 C 184.406 25.184,184.314 25.297,184.254 25.487 C 184.194 25.678,184.072 25.833,183.985 25.833 C 183.897 25.833,183.754 26.021,183.667 26.250 C 183.580 26.479,183.427 26.667,183.328 26.667 C 183.228 26.667,183.192 26.739,183.246 26.827 C 183.301 26.916,183.208 27.125,183.041 27.293 C 182.873 27.460,182.631 27.857,182.502 28.174 C 182.374 28.491,182.227 28.787,182.176 28.833 C 182.037 28.958,181.374 30.362,181.251 30.792 C 181.192 30.998,181.086 31.167,181.015 31.167 C 180.945 31.167,180.789 31.463,180.670 31.825 C 180.550 32.187,180.351 32.522,180.226 32.569 C 180.102 32.617,180.000 32.771,180.000 32.911 C 180.000 33.052,179.925 33.167,179.833 33.167 C 179.742 33.167,179.667 33.317,179.667 33.500 C 179.667 33.683,179.610 33.834,179.542 33.835 C 179.473 33.836,179.267 34.155,179.085 34.544 C 178.902 34.932,178.658 35.349,178.543 35.470 C 178.428 35.591,178.288 35.872,178.232 36.095 C 178.176 36.318,178.059 36.500,177.972 36.500 C 177.885 36.500,177.853 36.564,177.901 36.641 C 177.949 36.719,177.822 36.961,177.619 37.179 C 177.416 37.397,177.274 37.577,177.303 37.579 C 177.333 37.582,177.276 37.794,177.178 38.053 C 177.080 38.311,177.000 38.592,177.000 38.678 C 177.000 38.763,176.932 38.833,176.850 38.833 C 176.699 38.833,176.265 39.806,176.309 40.042 C 176.323 40.110,176.264 40.167,176.180 40.167 C 176.096 40.167,175.977 40.392,175.916 40.668 C 175.856 40.944,175.737 41.127,175.653 41.075 C 175.569 41.023,175.500 41.116,175.500 41.282 C 175.500 41.448,175.312 41.801,175.083 42.068 C 174.854 42.334,174.667 42.465,174.667 42.359 C 174.667 42.030,174.614 41.929,174.227 41.511 C 174.020 41.288,173.889 41.045,173.935 40.970 C 173.982 40.895,173.940 40.833,173.843 40.833 C 173.746 40.833,173.667 40.718,173.667 40.578 C 173.667 40.438,173.559 40.282,173.428 40.231 C 173.237 40.158,172.946 39.622,172.759 39.000 C 172.570 38.374,172.424 38.041,172.247 37.833 C 172.129 37.696,171.934 37.246,171.813 36.833 C 171.693 36.421,171.423 35.896,171.213 35.668 C 171.004 35.439,170.752 35.008,170.653 34.710 C 170.555 34.411,170.405 34.167,170.320 34.167 C 170.236 34.167,170.167 34.063,170.167 33.937 C 170.167 33.811,170.055 33.615,169.919 33.502 C 169.782 33.388,169.707 33.235,169.753 33.162 C 169.798 33.089,169.779 33.003,169.709 32.973 C 169.480 32.871,168.783 31.209,168.638 30.417 C 168.621 30.325,168.508 30.151,168.387 30.030 C 168.266 29.909,168.167 29.702,168.167 29.571 C 168.167 29.440,168.104 29.333,168.026 29.333 C 167.949 29.333,167.791 29.015,167.674 28.626 C 167.558 28.238,167.358 27.771,167.231 27.589 C 167.104 27.408,167.000 27.126,167.000 26.963 C 167.000 26.800,166.926 26.667,166.837 26.667 C 166.747 26.667,166.626 26.479,166.568 26.250 C 166.511 26.021,166.393 25.833,166.305 25.833 C 166.218 25.833,166.193 25.758,166.250 25.667 C 166.307 25.575,166.279 25.500,166.188 25.500 C 166.097 25.500,165.980 25.369,165.929 25.208 C 165.877 25.048,165.651 24.702,165.425 24.441 C 165.199 24.179,164.882 23.616,164.721 23.191 C 164.560 22.765,164.262 22.235,164.058 22.014 C 163.855 21.792,163.646 21.439,163.593 21.229 C 163.540 21.019,163.301 20.638,163.061 20.382 C 162.822 20.126,162.553 19.711,162.463 19.459 C 162.374 19.207,162.234 19.042,162.152 19.092 C 162.071 19.143,162.048 19.068,162.103 18.925 C 162.158 18.783,162.119 18.667,162.018 18.667 C 161.916 18.667,161.833 18.552,161.833 18.411 C 161.833 18.271,161.725 18.115,161.594 18.064 C 161.462 18.014,161.306 17.753,161.247 17.486 C 161.188 17.219,161.059 17.000,160.959 17.000 C 160.859 17.000,160.826 16.952,160.884 16.894 C 160.943 16.835,160.805 16.566,160.578 16.296 C 160.350 16.026,160.207 15.736,160.259 15.653 C 160.311 15.569,160.275 15.500,160.180 15.500 C 160.084 15.500,159.962 15.325,159.909 15.111 C 159.640 14.041,156.229 13.603,151.140 13.985 M333.333 13.984 C 331.674 14.140,331.709 14.125,330.736 15.097 L 329.888 15.944 329.894 17.222 C 329.897 17.925,329.960 18.500,330.033 18.500 C 330.216 18.500,330.204 35.624,330.021 35.737 C 329.757 35.900,329.680 53.630,329.897 64.352 C 330.005 69.721,329.995 71.650,329.855 71.736 C 329.732 71.813,329.667 72.543,329.667 73.849 C 329.667 77.014,329.818 77.089,336.544 77.244 C 342.654 77.385,342.333 77.657,342.333 72.325 C 342.333 70.221,342.390 68.500,342.458 68.500 C 342.527 68.500,342.589 63.906,342.596 58.292 C 342.603 52.677,342.669 40.865,342.742 32.043 C 342.851 19.145,342.835 15.953,342.665 15.748 C 342.548 15.607,342.497 15.447,342.552 15.392 C 342.607 15.337,342.374 15.008,342.033 14.661 L 341.415 14.030 337.999 13.948 C 336.120 13.903,334.021 13.919,333.333 13.984 M24.730 26.119 C 24.796 26.185,25.052 26.263,25.300 26.293 C 26.568 26.447,27.500 26.685,27.500 26.854 C 27.500 26.934,27.556 26.987,27.625 26.971 C 27.909 26.905,28.788 27.442,29.333 28.016 C 30.083 28.804,30.371 29.167,30.248 29.167 C 30.194 29.167,30.332 29.410,30.556 29.708 C 30.779 30.006,31.013 30.419,31.075 30.625 C 31.138 30.831,31.244 31.000,31.312 31.000 C 31.379 31.000,31.426 31.305,31.416 31.677 C 31.407 32.049,31.459 32.391,31.533 32.437 C 31.711 32.547,31.706 34.889,31.527 35.092 C 31.450 35.179,31.288 35.681,31.167 36.208 C 31.046 36.735,30.884 37.167,30.807 37.167 C 30.730 37.167,30.667 37.275,30.667 37.408 C 30.667 37.541,30.535 37.727,30.375 37.820 C 30.215 37.913,30.156 37.992,30.245 37.995 C 30.335 37.998,30.222 38.130,29.995 38.289 C 29.769 38.447,29.559 38.541,29.530 38.497 C 29.501 38.453,29.403 38.548,29.313 38.708 C 29.224 38.869,28.966 39.000,28.742 39.000 C 28.517 39.000,28.333 39.065,28.333 39.144 C 28.333 39.223,28.146 39.267,27.917 39.242 C 27.688 39.217,27.500 39.255,27.500 39.328 C 27.500 39.569,23.015 39.704,19.093 39.582 L 15.224 39.461 15.269 33.022 C 15.294 29.481,15.318 26.527,15.324 26.458 C 15.329 26.390,15.446 26.333,15.583 26.333 C 15.721 26.333,15.833 26.258,15.833 26.167 C 15.833 25.974,24.539 25.928,24.730 26.119 " stroke="none" fill="#4c0404" fill-rule="evenodd"></path><path id="path1" d="M342.578 58.167 C 342.578 63.529,342.599 65.723,342.625 63.042 C 342.651 60.360,342.651 55.973,342.625 53.292 C 342.599 50.610,342.578 52.804,342.578 58.167 M260.542 51.417 C 260.544 51.783,260.578 51.914,260.618 51.706 C 260.658 51.499,260.656 51.199,260.615 51.040 C 260.573 50.880,260.540 51.050,260.542 51.417 M202.397 53.083 C 202.397 54.183,202.424 54.612,202.457 54.035 C 202.490 53.459,202.489 52.559,202.456 52.035 C 202.423 51.512,202.397 51.983,202.397 53.083 M202.372 63.000 C 202.372 63.321,202.406 63.452,202.448 63.292 C 202.490 63.131,202.490 62.869,202.448 62.708 C 202.406 62.548,202.372 62.679,202.372 63.000 M329.905 67.833 C 329.905 69.987,329.929 70.869,329.958 69.792 C 329.987 68.715,329.987 66.952,329.958 65.875 C 329.929 64.798,329.905 65.679,329.905 67.833 " stroke="none" fill="#500404" fill-rule="evenodd"></path><path id="path2" d="M342.578 58.167 C 342.578 63.529,342.599 65.723,342.625 63.042 C 342.651 60.360,342.651 55.973,342.625 53.292 C 342.599 50.610,342.578 52.804,342.578 58.167 M260.542 51.417 C 260.544 51.783,260.578 51.914,260.618 51.706 C 260.658 51.499,260.656 51.199,260.615 51.040 C 260.573 50.880,260.540 51.050,260.542 51.417 M202.397 53.083 C 202.397 54.183,202.424 54.612,202.457 54.035 C 202.490 53.459,202.489 52.559,202.456 52.035 C 202.423 51.512,202.397 51.983,202.397 53.083 M202.372 63.000 C 202.372 63.321,202.406 63.452,202.448 63.292 C 202.490 63.131,202.490 62.869,202.448 62.708 C 202.406 62.548,202.372 62.679,202.372 63.000 M329.905 67.833 C 329.905 69.987,329.929 70.869,329.958 69.792 C 329.987 68.715,329.987 66.952,329.958 65.875 C 329.929 64.798,329.905 65.679,329.905 67.833 " stroke="none" fill="#500404" fill-rule="evenodd"></path><path id="path3" d="M342.578 58.167 C 342.578 63.529,342.599 65.723,342.625 63.042 C 342.651 60.360,342.651 55.973,342.625 53.292 C 342.599 50.610,342.578 52.804,342.578 58.167 M260.542 51.417 C 260.544 51.783,260.578 51.914,260.618 51.706 C 260.658 51.499,260.656 51.199,260.615 51.040 C 260.573 50.880,260.540 51.050,260.542 51.417 M202.397 53.083 C 202.397 54.183,202.424 54.612,202.457 54.035 C 202.490 53.459,202.489 52.559,202.456 52.035 C 202.423 51.512,202.397 51.983,202.397 53.083 M202.372 63.000 C 202.372 63.321,202.406 63.452,202.448 63.292 C 202.490 63.131,202.490 62.869,202.448 62.708 C 202.406 62.548,202.372 62.679,202.372 63.000 M329.905 67.833 C 329.905 69.987,329.929 70.869,329.958 69.792 C 329.987 68.715,329.987 66.952,329.958 65.875 C 329.929 64.798,329.905 65.679,329.905 67.833 " stroke="none" fill="#500404" fill-rule="evenodd"></path><path id="path4" d="M342.578 58.167 C 342.578 63.529,342.599 65.723,342.625 63.042 C 342.651 60.360,342.651 55.973,342.625 53.292 C 342.599 50.610,342.578 52.804,342.578 58.167 M260.542 51.417 C 260.544 51.783,260.578 51.914,260.618 51.706 C 260.658 51.499,260.656 51.199,260.615 51.040 C 260.573 50.880,260.540 51.050,260.542 51.417 M202.397 53.083 C 202.397 54.183,202.424 54.612,202.457 54.035 C 202.490 53.459,202.489 52.559,202.456 52.035 C 202.423 51.512,202.397 51.983,202.397 53.083 M202.372 63.000 C 202.372 63.321,202.406 63.452,202.448 63.292 C 202.490 63.131,202.490 62.869,202.448 62.708 C 202.406 62.548,202.372 62.679,202.372 63.000 M329.905 67.833 C 329.905 69.987,329.929 70.869,329.958 69.792 C 329.987 68.715,329.987 66.952,329.958 65.875 C 329.929 64.798,329.905 65.679,329.905 67.833 " stroke="none" fill="#500404" fill-rule="evenodd"></path></g></svg>